<svg id="Layer_1" data-name="Layer 1" xmlns="http://www.w3.org/2000/svg" viewBox="0 0 512 512"><defs><style>.cls-1{fill:#666;}</style></defs><path id="item_favourite" data-name="item favourite" class="cls-1" d="M229.53,433.71C111,326,32.64,254.77,32.64,171.41c0-65.61,51.39-117,117-117,36.5,0,72.56,16.76,96.46,44.83h0a13,13,0,0,0,19.79,0h0c23.91-28.07,60-44.83,96.47-44.83,65.61,0,117,51.39,117,117,0,83.51-78.57,154.77-197.51,262.62L256,457.59Zm26.45-4,11.45-11.43c114.82-104,190.66-172.66,190.66-246.87,0-54.57-41.15-95.73-95.73-95.73-34.3,0-67.73,18.06-86.43,45.39a24.06,24.06,0,0,1-19.87,10.4h0a24,24,0,0,1-19.81-10.33c-18.85-27.37-52.36-45.46-86.61-45.46-54.58,0-95.73,41.16-95.73,95.73,0,74.21,75.93,143,190.87,247.06Z"/></svg>