<svg id="Layer_1" data-name="Layer 1" xmlns="http://www.w3.org/2000/svg" viewBox="0 0 512 512"><defs><style>.cls-1{fill:#666;}</style></defs><path class="cls-1" d="M256.17,176.46a54.74,54.74,0,0,1-39-16.28,53.81,53.81,0,0,1-15.56-38.46,54.52,54.52,0,0,1,54.41-53.93h.29A53.74,53.74,0,0,1,294.68,84a54.32,54.32,0,0,1-.33,76.65,53.3,53.3,0,0,1-37.87,15.86Zm-1.05-93.24a38.89,38.89,0,0,0,.62,77.77h.66c21.56-.36,38.81-18,38.46-39.28a38.79,38.79,0,0,0-39-38.49Z"/><path class="cls-1" d="M256,444.21a52.26,52.26,0,0,1-52.2-52.2V233.54a52.2,52.2,0,0,1,104.4,0V392A52.26,52.26,0,0,1,256,444.21Zm0-247.87a37.24,37.24,0,0,0-37.2,37.2V392a37.2,37.2,0,0,0,74.4,0V233.54A37.24,37.24,0,0,0,256,196.34Z"/></svg>