<svg id="Layer_1" data-name="Layer 1" xmlns="http://www.w3.org/2000/svg" viewBox="0 0 512 512"><defs><style>.cls-1{fill:#666;}</style></defs><path class="cls-1" d="M237.75,357.81h-.16a111.68,111.68,0,0,1-80-33.52,114.89,114.89,0,0,1-33-81.14v0A113.39,113.39,0,1,1,237.75,357.81ZM133.4,243.16c0,58.31,46.78,105.8,104.2,105.88h.14c57.35,0,104.42-46.44,105-103.58a104.62,104.62,0,0,0-106.93-106C179.63,140.48,133.71,187,133.4,243.16Z"/><path class="cls-1" d="M229.41,380.15c.75-6.69,4.22-10,9-10.32a8.64,8.64,0,0,1,9.3,7.47c.69,5.89.65,11.87.79,17.82.22,10,.36,19.94.48,29.92.07,6.57-3.12,10.35-8.87,10.67-5.39.31-9.58-2.65-9.78-8.1C229.79,411.21,229.67,394.8,229.41,380.15Z"/><path class="cls-1" d="M373.62,115.82c-1.71,2.74-2.66,5.06-4.27,6.75q-15,15.74-30.2,31.22c-4.09,4.18-10,4.37-13.71.65s-3.8-9.62.19-13.77q15-15.64,30.19-31.21c4.42-4.54,9.59-5.18,13.55-1.25C371.33,110.17,372.21,113.21,373.62,115.82Z"/><path class="cls-1" d="M150.42,150c-1,9.25-9.3,13.07-15.1,8.16-6.75-5.72-13-12.06-19.36-18.19-4.83-4.63-9.66-9.24-14.3-14a9.36,9.36,0,0,1-1.5-11.16c1.6-3,5.67-5.3,9.23-4.6a12,12,0,0,1,5.73,2.82c10.68,10.09,21.28,20.27,31.67,30.66C148.77,145.59,149.69,148.64,150.42,150Z"/><path class="cls-1" d="M243.82,109c-.85,6.47-4.58,10-9.32,9.88-5.54-.13-9.37-3.72-9.58-9.46-.3-8.76-.35-17.53-.49-26.29-.09-5.85-.23-11.69-.2-17.53.05-6.24,3.58-10.3,8.9-10.46,5.71-.18,9.68,3.51,9.86,9.84C243.41,80,243.58,95.11,243.82,109Z"/><path class="cls-1" d="M143.8,332.57c5.22.89,7.8,2.95,9.07,6.42a9,9,0,0,1-2.16,9.79q-6.92,7.28-13.9,14.49-8.37,8.67-16.76,17.31c-2.85,2.93-6.25,4.33-10.27,3-3.31-1.11-6.12-3.35-6.14-6.95,0-2.82.59-6.41,2.36-8.33,10.3-11.2,20.94-22.09,31.71-32.83C139.5,333.68,142.53,333.15,143.8,332.57Z"/><path class="cls-1" d="M365.12,379.53a17.22,17.22,0,0,1-4.07-2.42q-16.23-15.48-32.25-31.19c-4.1-4-4.07-9.37-.36-13.43,3.44-3.77,9-4.17,13.09-.27,11.21,10.61,22.24,21.42,33.22,32.27,2.7,2.67,2.9,7.23,1,10.56S370.12,380.21,365.12,379.53Z"/><path class="cls-1" d="M58.12,256.69c-6.67-.58-10.16-4.17-10.19-9.48a9.19,9.19,0,0,1,9-9.17c6.8-.42,13.62-.4,20.42-.51,8.15-.13,16.3-.3,24.44-.26,5.7,0,9.56,3.58,9.89,8.68a9,9,0,0,1-9,9.79c-12.87.53-25.76.62-38.64.88C61.7,256.67,59.4,256.68,58.12,256.69Z"/><path class="cls-1" d="M372.4,251.53c-6.68-.78-10.19-4.49-10.07-9.67a9.4,9.4,0,0,1,9.55-9.14q22.26-.51,44.53-.72c5.61-.05,9.21,3.69,9.31,9.1.1,5.8-3.21,9.47-9.09,9.61C401.54,251.07,386.45,251.28,372.4,251.53Z"/><path class="cls-1" d="M226,333.58c-39-4.65-70.69-34.72-77.83-73.55-7.18-39.14,13.65-79.62,49.69-96.95a90.8,90.8,0,0,1,31.47-8.74c4.75-.43,5-.33,5.07,4.48.22,12.05.34,24.11.53,36.16q.62,39.81,1.27,79.61c.31,19,.61,38,1,57,.06,2.54-.94,3.32-3.24,3Z"/></svg>