<svg id="Layer_1" data-name="Layer 1" xmlns="http://www.w3.org/2000/svg" viewBox="0 0 512 512"><defs><style>.cls-1,.cls-3{fill:#666;}.cls-2{fill:#e6e6e6;}.cls-3{fill-rule:evenodd;}</style></defs><g id="Display_MOde" data-name="Display MOde"><rect class="cls-1" x="17.24" y="147.37" width="477.52" height="217.27" rx="108.63"/><circle class="cls-2" cx="126.73" cy="256" r="93.61"/><circle class="cls-2" cx="389.34" cy="256" r="93.61"/><path class="cls-1" d="M154.5,255.2a27.61,27.61,0,1,1-27.42-27.72A27.61,27.61,0,0,1,154.5,255.2Z"/><path class="cls-1" d="M130.31,206.72c0,2.21,0,4.41,0,6.62a3.42,3.42,0,1,1-6.83,0q0-6.69,0-13.38a3.41,3.41,0,1,1,6.81,0C130.34,202.21,130.31,204.46,130.31,206.72Z"/><path class="cls-1" d="M78.5,251.66c2.16,0,4.32,0,6.48,0S88.81,253,88.83,255s-1.51,3.44-3.77,3.45q-6.56,0-13.1,0c-2.27,0-3.8-1.43-3.78-3.45s1.55-3.36,3.85-3.37S76.35,251.66,78.5,251.66Z"/><path class="cls-1" d="M175.23,258.5c-2.21,0-4.42,0-6.62,0a3.42,3.42,0,1,1,0-6.82q6.61,0,13.24,0a3.43,3.43,0,0,1,3.72,3.36c0,2-1.5,3.44-3.76,3.46S177.43,258.5,175.23,258.5Z"/><path class="cls-1" d="M130.31,303.46c0,2.15,0,4.31,0,6.47s-1.37,3.83-3.38,3.85-3.44-1.51-3.45-3.78q0-6.54,0-13.09c0-2.27,1.43-3.8,3.45-3.78s3.36,1.55,3.38,3.85S130.31,301.3,130.31,303.46Z"/><path class="cls-1" d="M97.07,229.21A8.55,8.55,0,0,1,95,228c-3.21-3.1-6.35-6.27-9.48-9.44a3.41,3.41,0,1,1,4.74-4.88q4.88,4.78,9.67,9.66a3.26,3.26,0,0,1,.69,3.85C100.06,228.49,99,229.1,97.07,229.21Z"/><path class="cls-1" d="M156.59,229.19c-1.79-.1-2.82-.7-3.42-1.93a3.07,3.07,0,0,1,.43-3.63q5.06-5.22,10.28-10.27a3.37,3.37,0,0,1,4.7,4.81q-5,5.18-10.18,10.17A5.34,5.34,0,0,1,156.59,229.19Z"/><path class="cls-1" d="M101,284.91a7.78,7.78,0,0,1-1.11,2c-3.14,3.24-6.34,6.41-9.55,9.58a3.41,3.41,0,1,1-4.82-4.81c3.16-3.21,6.36-6.39,9.56-9.57a3.3,3.3,0,0,1,3.83-.79C100.28,281.86,100.93,283,101,284.91Z"/><path class="cls-1" d="M152.79,284.79c.09-1.8.7-2.83,1.92-3.43a3,3,0,0,1,3.64.41c3.47,3.37,6.91,6.79,10.27,10.28a3.37,3.37,0,0,1-4.8,4.71c-3.45-3.33-6.83-6.74-10.17-10.18A5.52,5.52,0,0,1,152.79,284.79Z"/><path class="cls-1" d="M61.36,326.56v1.75L59.7,326.7v-1.93Z"/><path class="cls-3" d="M444,269.19a42.7,42.7,0,1,1-50.35-68.31c4.95-2.87,3.49-6.53-2.18-6.2a58.6,58.6,0,1,0,59.18,77.73C452.08,268.25,447.75,265.69,444,269.19Z"/></g></svg>