<svg id="Layer_1" data-name="Layer 1" xmlns="http://www.w3.org/2000/svg" viewBox="0 0 512 512"><defs><style>.cls-1{fill:#666;}</style></defs><g id="Date"><path class="cls-1" d="M448.29,158.82a104.14,104.14,0,0,0-.77-12.49c-2.52-21.05-19.28-40.4-39.85-46-7.3-2-14.81-2.24-20.53-2.24h-35.7c0,3.51,0,7,0,10.53-.07,9.18-5.69,15.25-14.33,15.47h-.49c-9,0-15.49-6.07-15.68-14.76-.08-3.75-.14-7.49-.18-11.24l-131.19,0q-.06,5.77-.19,11.36c-.19,8.47-6.71,14.61-15.51,14.61h-.36c-8.68-.2-14.54-6.38-14.63-15.38,0-3.54,0-7.09,0-10.58H139.47l-3.05.07c-1.5,0-3,0-4.52,0H127c-6.47,0-13.31.11-19.61,1.4-26.54,5.42-43.69,27.1-43.71,55.21,0,69.91,0,141,0,209.72v61.46c0,18.8,12.65,31.44,31.46,31.44H416.32c19.73,0,32-12.33,32-32.16C448.33,335.84,448.33,248.12,448.29,158.82Zm-19.46,261c0,13.66-8.83,22.15-23,22.16h-300c-16.37,0-24.33-7.95-24.33-24.3v-38q0-89.25,0-178.52c0-9.29,3.37-15.85,10-19.51a26.8,26.8,0,0,1,12.42-3c32.74-.1,65.7-.11,93.62-.11h209c14,0,22.39,8.31,22.4,22.22Q428.86,310.29,428.83,419.84Z"/><path class="cls-1" d="M336.6,119.11c-6.26,0-10.56-4-10.69-9.87-.29-13.37-.29-26.81,0-39.95.14-5.91,4.43-9.88,10.7-9.88H337c5.33.14,9.39,4.76,9.43,10.76q0,3.31,0,6.64v3.05q0,4.86,0,9.72c0,2.14,0,4.27,0,6.4q0,6.3,0,12.6C346.37,115,342.84,119,337,119.1Z"/><path class="cls-1" d="M173.54,119.12c-5.91-.14-9.62-4.14-9.69-10.44,0-4.53,0-9.15,0-13.62,0-1.94,0-3.87,0-5.81s0-4.1,0-6.16c0-4.35,0-8.86,0-13.28.06-5.87,4-10.24,9.35-10.39h.34c5.95,0,10.71,4.38,10.82,10,.29,13.88.29,27.35,0,40-.13,5.72-4.45,9.72-10.51,9.72Z"/><path class="cls-1" d="M156.27,277.44c0-16.15,12.27-28.22,28.52-28.14,15.21.07,28.4,13.25,28.41,28.39,0,15.62-13.24,28.6-29.16,28.55C168.84,306.19,156.23,293.12,156.27,277.44Zm23.43,4.49c-2.63-2.37-5-5.07-7.93-6.93-1.34-.86-3.73-.07-5.64,0,.05,1.9-.65,4.41.3,5.58a106.82,106.82,0,0,0,10.07,10.23c1.87,1.74,4.34,2.7,6.47.65,6.49-6.26,13-12.57,19-19.23,1-1.06.61-4.41-.36-5.92-1.45-2.25-4-1.66-5.87.1-1.24,1.13-2.36,2.42-3.58,3.59C188.15,273.86,184.08,277.74,179.7,281.93Z"/><path class="cls-1" d="M316.57,317c16,.08,28.1,12.48,28,28.7A28.63,28.63,0,0,1,316.29,374c-15.21,0-28.78-13.15-28.42-28.38C288.29,327.82,301.73,316.46,316.57,317Zm19.23,20.14c-1.13-1.42-1.88-3.22-3.17-3.77a5.22,5.22,0,0,0-4.52.5c-3.12,2.62-5.86,5.69-8.72,8.61-7.1,7.24-7.1,7.27-14.85.61-2-1.74-4.17-2.75-6.31-.53s-1.33,4.44.53,6.37c2.93,3.05,5.87,6.11,8.95,9,3.29,3.08,5.48,3,8.76-.19q8.32-8.14,16.46-16.46A32.3,32.3,0,0,0,335.8,337.15Z"/><path class="cls-1" d="M151.72,359.29c5.21,0,10.43-.06,15.64,0,4.21.07,6.26,2.05,6.3,6.19q.12,13.73,0,27.47c-.05,4.2-2.41,6.6-6.57,6.64q-15.21.17-30.43,0c-4.56,0-6.71-2.25-6.76-6.82q-.13-13.53,0-27.05c.05-4.35,2.22-6.38,6.59-6.45C141.57,359.24,146.65,359.29,151.72,359.29Z"/><path class="cls-1" d="M285.27,268.44c-5.22,0-10.44.06-15.65,0-4.21-.06-6.39-2-6.46-6.14q-.24-13.95,0-27.91c.07-4.1,2.3-6.19,6.48-6.24q15.45-.18,30.88,0c4.41.05,6.29,2.16,6.32,6.69q.11,13.53,0,27.07c0,4.73-1.91,6.48-6.79,6.53S290.2,268.44,285.27,268.44Z"/><path class="cls-1" d="M217.92,359.29c5.08,0,10.16-.06,15.24,0,4.39.07,6.52,2.11,6.55,6.46q.14,13.75,0,27.51c0,4.08-2.2,6.28-6.33,6.33q-15.45.18-30.89,0c-4.4,0-6.5-2.21-6.53-6.55q-.12-13.76,0-27.51c0-4.13,2.15-6.17,6.31-6.24C207.48,359.23,212.7,359.3,217.92,359.29Z"/><path class="cls-1" d="M351.34,228.91H367c3.79,0,5.72,1.87,5.7,5.73,0,9.16,0,18.32,0,27.47,0,4-2.21,5.94-6.09,6-10,.05-20,.08-30,0-4.41,0-6.37-2.12-6.4-6.57q-.09-13.11,0-26.21c0-4.75,1.59-6.28,6.4-6.37s9.86,0,14.79,0Z"/><path class="cls-1" d="M217.42,333.63c-5.65,0-11.3-.1-16.94,0-3.19.09-4.38-1-4.65-4.34-.68-8.21-.31-14.87,9.46-18.3,6.65-2.34,10.78-8.8,14.44-15a6.52,6.52,0,0,1,4.41-2.68c3.77-.39,7.62-.06,11.43-.15,2.75-.06,4.21.9,4.2,3.89q-.11,16.31,0,32.62c0,3-1.33,4-4.14,3.94C229.56,333.57,223.49,333.63,217.42,333.63Z"/><path class="cls-1" d="M351.31,399.9c-5.79,0-11.58-.1-17.37.05-3,.08-4.58-.94-4.26-4.12a4,4,0,0,0,0-.85c-.95-7.4.08-13.11,8.42-16.51,6.7-2.74,11.06-9.1,14.21-15.74,1.16-2.45,2.61-3.28,5.2-3.17,3.94.18,7.91.09,11.86,0,2.77,0,4.16,1.06,4.15,4q-.11,16.11,0,32.2c0,3.15-1.39,4.21-4.4,4.14C363.18,399.81,357.25,399.91,351.31,399.9Z"/><path class="cls-1" d="M151.28,334c-5.78,0-11.56-.07-17.33,0-2.92.05-4.41-.85-4.38-4.1.12-10.71.1-21.41,0-32.12,0-2.9,1.11-4.2,4-4a9.92,9.92,0,0,0,2.11,0c7.24-.94,12.83.18,16.79,7.82,3.45,6.67,10.31,10.71,17.48,13.31,2.78,1,3.73,2.38,3.5,5.21a54.17,54.17,0,0,0,0,8.45c.3,3.94-1.11,5.66-5.27,5.47C162.56,333.79,156.91,334,151.28,334Z"/><path class="cls-1" d="M354.76,333.63c-4.32-11.59-11.58-20.1-23-24.74a3.42,3.42,0,0,1-1.93-2.31A58,58,0,0,1,329.9,296c.12-1.05,2.12-2.66,3.29-2.68,12.25-.19,24.51-.22,36.76.05,1.2,0,3.34,2.29,3.37,3.56.27,11,.16,22,.15,33,0,2.61-1.29,3.77-4,3.72C364.73,333.56,359.94,333.63,354.76,333.63Z"/><path class="cls-1" d="M285.23,399.66c-5.78,0-11.56-.11-17.33,0-3.4.1-4.88-1.15-4.85-4.65q.17-15.65,0-31.29c0-3.17,1.09-4.85,4.45-4.47H268c7-.71,12.28,0,15.77,8s11.54,12.9,20.17,15.6c2.32.73,3.08,1.79,3,4.15-.32,15,2.08,12.29-12.39,12.56C291.43,399.71,288.33,399.66,285.23,399.66Z"/><path class="cls-1" d="M285,293.24c5.92,0,11.85.08,17.77,0,2.86-.05,4.28,1,4.09,3.95,0,.56,0,1.12,0,1.69,0,7.35,0,7.34-6.51,10.15a37.28,37.28,0,0,0-20.65,21.24c-1,2.48-2,3.52-4.75,3.46-13.5-.32-11.79,2-11.88-11.93-.05-7.62,0-15.24,0-22.86,0-5.39.3-5.66,5.84-5.66Z"/><path class="cls-1" d="M217.86,228.09c5.79,0,11.58.06,17.37,0,3.18-.05,4.59,1.15,4.55,4.49q-.18,15.88,0,31.77c0,3.17-1.3,4.4-4.32,4.13a5.39,5.39,0,0,0-1.27,0c-7.23,1.19-11.73-.49-14.47-8.57-3.13-9.21-11-15.12-20-19-3.32-1.44-4.29-4.68-3.23-10,.71-3.57,3.47-2.68,5.71-2.72C207.41,228,212.64,228.08,217.86,228.09Z"/><path class="cls-1" d="M145.35,268.43c-4.15,0-8.39.21-12.58-.14-1.12-.1-3-1.89-3-2.93-.22-11.28-.13-22.57-.15-33.86,0-2.57,1.41-3.42,3.77-3.42q18,0,36,0c2.83,0,3.92,1.38,4.08,4.18.25,4.46-.2,7.4-5.47,9.5-10.84,4.33-18,12.74-21.58,24C146.16,266.6,145.79,267.36,145.35,268.43Z"/></g></svg>