<svg id="Layer_1" data-name="Layer 1" xmlns="http://www.w3.org/2000/svg" viewBox="0 0 512 512"><defs><style>.cls-1{fill:#666;}</style></defs><path class="cls-1" d="M459.68,419.94c-1.59-5.74-3.29-11.57-4.93-17.2-3.3-11.32-6.7-23-9.45-34.72-1.6-6.84-1.16-14.66,1.17-20.4,16.71-41.27,12.69-86.46-11-124A134.21,134.21,0,0,0,328.7,160.73c-2.69-.16-5.42-.24-8.11-.24a134.64,134.64,0,0,0-74,22,137.6,137.6,0,0,0-50.39,59.68,132.35,132.35,0,0,0-8.67,79.94,137.79,137.79,0,0,0,39,71.65c24.6,24.11,58.85,37.94,94,37.94a133.36,133.36,0,0,0,57.54-13,50,50,0,0,1,22-5.38,46.76,46.76,0,0,1,9.42,1c12.48,2.6,24.7,5.6,37.64,8.78l13.76,3.36v0A47,47,0,0,0,459.68,419.94Zm-174-69.18a6.09,6.09,0,0,1-6.44,6.36H252.07a5.94,5.94,0,0,1-6.24-6.24V320.2c0-10.14.09-20.29-.05-30.44a6.43,6.43,0,0,1,6.47-6.48c9,.1,17.94,0,26.92,0a6.16,6.16,0,0,1,6.5,6.45Q285.7,320.26,285.67,350.76ZM395,305.28a20.65,20.65,0,0,1-2.63,18.28,2.42,2.42,0,0,0-.26,1.66c1.41,7-.09,13.31-4.85,18.71a3,3,0,0,0-.56,2.46c.19,5.88-1,11.32-5,15.89A20.19,20.19,0,0,1,369,368.94c-7.22,1.08-14.53.75-21.78.39-11.22-.55-21.87-3.82-32.43-7.44-4.65-1.6-9.39-2.94-14.1-4.36a11,11,0,0,0-2.62-.39,6.08,6.08,0,0,1-5.93-6.11q0-30.87,0-61.74a5.93,5.93,0,0,1,4.89-5.92,7,7,0,0,0,4.19-2c3.14-3.25,6.31-6.49,9.24-9.93,4-4.73,7.55-9.95,11.85-14.41a31.06,31.06,0,0,0,8.2-16.64c.69-3.8,1.12-7.71,2.92-11.2a41.14,41.14,0,0,1,3.77-5.86,4.73,4.73,0,0,1,3.86-1.72,26.84,26.84,0,0,1,10.79,1.81c6.11,2.43,9,7.31,10.23,13.44a38.78,38.78,0,0,1-4.57,27.56c-.84,1.47-1.57,3-2.29,4.54a14.29,14.29,0,0,0-.61,2h26.79a18.54,18.54,0,0,1,17.91,14,20.26,20.26,0,0,1-3.71,17.41A2.9,2.9,0,0,0,395,305.28ZM264.13,332.4a6.44,6.44,0,0,0-6.32,6.37,6.37,6.37,0,0,0,6.42,6.36,6.46,6.46,0,0,0,6.29-6.4A6.53,6.53,0,0,0,264.13,332.4Z"/><path class="cls-1" d="M164.63,335.39c-2.07-.61-4.1-1.15-6.09-1.69-6.06-1.64-11.78-3.18-16.59-6a57.13,57.13,0,0,0-29.36-7.67c-7.61,0-15.71,1.18-26.29,3.82-5.16,1.29-10.23,3.09-15.14,4.83-3.75,1.33-7.63,2.71-11.47,3.82a21.85,21.85,0,0,1-5.69.94c-1.55,0-2-.33-2-.34-1-1-1.16-4.82-.34-7.86,4.72-17.47,9.41-34.55,15-51.54,2.58-7.91,2.28-14.76-1-22.91a136.18,136.18,0,0,1-.81-100.2,139.09,139.09,0,0,1,68-74.46A134.17,134.17,0,0,1,193.24,62,138.63,138.63,0,0,1,311.61,128.9c1,1.71,1.92,3.48,3.05,5.73.21.43.44.87.67,1.33l-3.8.4a102,102,0,0,1-10.52.77c-1.22,0-2.34,0-3.42-.15-1.8-.16-4.46-2.32-7.1-5.78-25.42-33.27-57.06-50.14-94-50.14a135.41,135.41,0,0,0-26.12,2.66c-47.16,9.33-78.94,39.76-91.91,88-7.21,26.83-4.58,53.41,7.83,79,3.3,6.83,3.75,12.29,1.52,18.87-2.4,7.05-4.43,14.29-6.58,21.95-1,3.46-2,7-3,10.76l-.87,3,3.08-.45c2.92-.43,5.63-.77,8.25-1.1a127.63,127.63,0,0,0,14.85-2.42,45.25,45.25,0,0,1,10.79-1.3c12.51,0,24.19,5.2,35.49,10.23,3.22,1.43,6.55,2.91,9.86,4.26.92.43,1.84,4.64,2.23,6.44.19.85.37,1.68.56,2.42.74,2.89,1.22,5.81,1.83,9.51C164.34,333.67,164.48,334.51,164.63,335.39Z"/></svg>