<svg id="Layer_1" data-name="Layer 1" xmlns="http://www.w3.org/2000/svg" viewBox="0 0 512 512"><defs><style>.cls-1{fill:#666;}</style></defs><g id="Filter"><path class="cls-1" d="M476.52,123.34H191.71a58.86,58.86,0,0,0-115.94,0h-40a10.2,10.2,0,0,0-10.2,10.21h0a10.19,10.19,0,0,0,10.2,10.2H75.77a58.86,58.86,0,0,0,115.94,0H476.52a10.2,10.2,0,0,0,10.2-10.2h0A10.21,10.21,0,0,0,476.52,123.34ZM133.74,172.12a38.57,38.57,0,1,1,38.57-38.57A38.57,38.57,0,0,1,133.74,172.12Z"/><path class="cls-1" d="M35.72,245.72H320.53a58.86,58.86,0,0,1,115.94,0h40a10.21,10.21,0,0,1,10.2,10.21h0a10.2,10.2,0,0,1-10.2,10.2h-40a58.86,58.86,0,0,1-115.94,0H35.72a10.2,10.2,0,0,1-10.2-10.2h0A10.2,10.2,0,0,1,35.72,245.72ZM378.5,294.5a38.57,38.57,0,1,0-38.57-38.57A38.57,38.57,0,0,0,378.5,294.5Z"/><path class="cls-1" d="M35.72,368.28H173.61a58.86,58.86,0,0,1,115.94,0h187a10.2,10.2,0,0,1,10.2,10.2h0a10.21,10.21,0,0,1-10.2,10.21h-187a58.86,58.86,0,0,1-115.94,0H35.72a10.2,10.2,0,0,1-10.2-10.21h0A10.19,10.19,0,0,1,35.72,368.28Zm195.86,48.77A38.57,38.57,0,1,0,193,378.48,38.57,38.57,0,0,0,231.58,417.05Z"/></g></svg>