<svg id="Layer_1" data-name="Layer 1" xmlns="http://www.w3.org/2000/svg" viewBox="0 0 512 512"><defs><style>.cls-1{fill:#666;}</style></defs><path class="cls-1" d="M417,387.73c-5.39-1.7-10.43-3.28-15.47-4.88L311.1,354.11q-27.32-8.67-54.64-17.31a5.1,5.1,0,0,0-3,0c-27.09,9.12-54.14,18.35-81.23,27.45-23.2,7.79-46.44,15.46-69.67,23.17-.68.23-1.38.43-2.08.61-3.59.95-5.56-.56-5.56-4.3q0-111.43,0-222.88c0-3.92.69-4.84,4.47-6.11,9.87-3.33,19.73-6.69,29.64-9.91a2.64,2.64,0,0,0,2.19-3q-.09-37.64,0-75.27v-3c4.25,1.49,8.29,2.91,12.32,4.34l85.34,30.26c5.67,2,11.31,4.15,17,6a7.77,7.77,0,0,0,4.6.11q49.58-16.93,99.08-34c9.71-3.33,19.47-6.51,29.2-9.75a6.93,6.93,0,0,1,1.17-.3c4.78-.71,6.42-.38,6.41,5-.09,27.91,0,55.82-.09,83.73,0,2,.58,2.89,2.54,3.49,8.59,2.63,17.12,5.47,25.7,8.15,1.75.55,2.53,1.25,2.53,3.31Q417,274.44,417,385ZM248.7,113.54c-1.09.34-1.84.55-2.57.8-7.23,2.44-14.46,4.9-21.7,7.33q-59.25,19.87-118.54,39.67c-2.29.76-2.83,1.78-2.83,4q.09,105,0,210.05v3.13c4.26-1.43,8.19-2.77,12.13-4.08q65.49-21.9,131-43.74c1.95-.65,2.51-1.55,2.51-3.56q-.09-105.37-.05-210.77Zm31.92,173.14,21.32,6.47,9.47-23.07c14.39,4.45,28.64,8.83,42.84,13.33a4,4,0,0,1,2,2.51q3.5,12.15,6.71,24.39a2.85,2.85,0,0,0,2.33,2.3c4.48,1.29,8.9,2.74,13.36,4.1,2,.59,3.92,1.11,6.14,1.74-2.61-9.5-5.11-18.62-7.63-27.74q-14.79-53.61-29.53-107.25c-.52-1.89-1.26-3-3.27-3.53-6.15-1.73-12.22-3.71-18.46-5.64C310.79,211.8,295.77,249.09,280.62,286.68ZM378.07,69.25,258,110.31l120.06,38.55Z"/><path class="cls-1" d="M336.78,410.71c-7.2,3.73-14.07,7.56-21.17,10.92a150.91,150.91,0,0,1-45.27,12.78,155.78,155.78,0,0,1-75.45-8.8c-11.08-4.12-22.06-8.41-31.92-15.1-1.86-1.27-3.52-2.68-2.91-5.28s2.83-3.79,5.36-2.54c4,1.95,7.8,4.16,11.74,6.17,17.44,8.92,35.79,15.2,55.24,17.75,11.2,1.47,22.5.83,33.77-.22,16.37-1.52,31.86-6.18,46.75-12.84,6.57-2.94,12.73-6.76,19.27-10.28l-9-15.5,33.18,2.72c-3.77,11.19-7.48,22.21-11.33,33.67C342,419.33,339.34,414.9,336.78,410.71Z"/><path class="cls-1" d="M335.76,211.53c4.31,15.49,8.61,31,13,46.89l-29.23-8.84,15.67-38.13Z"/><path class="cls-1" d="M157.58,211.43q-7.52,0-12,3.68t-4.51,10.33a14.76,14.76,0,0,0,.85,4.81,11.53,11.53,0,0,0,2,3.8,52,52,0,0,1,6.18-3.94,16.07,16.07,0,0,1,3.6-1.22,20.44,20.44,0,0,1,4.37-.42,17.71,17.71,0,0,1,6.28,1.25q3.3,1.25,7.21,2.85A51.72,51.72,0,0,0,152.77,251a47.33,47.33,0,0,0-7.08,24.93q0,18.46,8.44,27.88t24.76,9.41q4.32,0,13.31-4.3a164.19,164.19,0,0,0,18.55-10.54l-1.7-6.06a145.82,145.82,0,0,1-16.6,3.56,93.43,93.43,0,0,1-13.25,1q-11.83,0-19.51-6.06T152,274.31q0-7.71,5.25-15.17A48.86,48.86,0,0,1,171.74,246a60.6,60.6,0,0,1,18.73-7.87c1.78.16,3.66.24,5.61.24a67.23,67.23,0,0,0,9.16-.48l5-16.09c-1.79.16-4.72.24-8.81.24H199a41.18,41.18,0,0,1-10.13-1.28,78.1,78.1,0,0,1-11.43-4A90.6,90.6,0,0,0,166,212.59a33,33,0,0,0-8.44-1.16m20.54-32.54q-3.6,4.76-11.07,13.36a108.59,108.59,0,0,0,11.28,12.05,79.27,79.27,0,0,0,10.24-13.41,142.67,142.67,0,0,1-10.45-12"/></svg>