<svg id="Layer_1" data-name="Layer 1" xmlns="http://www.w3.org/2000/svg" viewBox="0 0 512 512"><defs><style>.cls-1{fill:#666;}</style></defs><path class="cls-1" d="M84.89,435.74A37.78,37.78,0,0,1,47.11,398V98.51A37.78,37.78,0,0,1,84.89,60.73H234.61A16.39,16.39,0,0,1,251,77.12h0a16.39,16.39,0,0,1-16.39,16.39H79.89V403H234.61A16.39,16.39,0,0,1,251,419.35h0a16.39,16.39,0,0,1-16.39,16.39ZM351.51,313.8l49.17-49.18H175.44V231.84H400.68l-49.17-49.17a16.16,16.16,0,0,1,0-22.87h0a16.16,16.16,0,0,1,22.87,0l88.44,88.43-88.44,88.44a16.16,16.16,0,0,1-22.87,0h0A16.16,16.16,0,0,1,351.51,313.8Z"/></svg>