<svg id="Layer_1" data-name="Layer 1" xmlns="http://www.w3.org/2000/svg" viewBox="0 0 512 512"><defs><style>.cls-1{fill:#666;}</style></defs><path class="cls-1" d="M235.78,437.36c-74.47,0-143.23-37.57-183.92-100.5a33.82,33.82,0,0,1,2.46-40.17A151.26,151.26,0,0,1,86.83,263a144.69,144.69,0,0,1,40.53-21.66l3.09-1.09-2.71-1.84c-22.9-15.5-37.45-38.19-41-63.89A89.22,89.22,0,0,1,238.37,99.79c18.44,18.31,27.95,45,25.43,71.4-2.6,27.31-17.2,51.19-41.09,67.24L220,240.26l3.1,1.09a149.63,149.63,0,0,1,41.38,22.06l1.23.93,1-1.17a97.87,97.87,0,0,1,35.5-26.43l2.24-1L302.69,234c-24.42-23.83-20.33-57.66-2.26-76.61a53.26,53.26,0,0,1,38.46-16.12,54.73,54.73,0,0,1,34.26,12c11.13,8.95,18.52,24,19.29,39.19.56,10.85-1.87,26.84-16.6,41.42l-1.74,1.72,2.25,1c20.51,8.84,35.91,23.06,47.08,43.47l3.48,7.1a43.82,43.82,0,0,1-1.37,41.48A220.48,220.48,0,0,1,236.18,437.36Zm-61-185.77a125.41,125.41,0,0,0-41.49,7.14c-29.65,10.35-52.92,29.51-69.17,56.93a5,5,0,0,0,.13,5.66,186.84,186.84,0,0,0,24,32.2c39.54,42.06,89.23,64,147.71,65.09a201.85,201.85,0,0,0,61.46-9.69,5,5,0,0,0,3.88-4.17c2.87-16.55,3-31.52.49-45.8-5.36-30.18-19.56-55.58-42.2-75.49A126.35,126.35,0,0,0,204.12,255,129.92,129.92,0,0,0,174.75,251.59Zm105.72,25.77c31.76,34.14,45.24,73.11,41.2,119.14l-.25,2.82,3.57-1.61c.8-.36,1.49-.67,2.14-1C363.41,378,392,350.25,412.08,314.1a6.18,6.18,0,0,0,.77-3.82,72.9,72.9,0,0,0-19.53-39.37c-12.05-12.6-26.37-20.22-42.58-22.66a32.49,32.49,0,0,0-5-.26l-1.58,0c-4-.06-7.55-.12-11.18-.12h-.36a40.72,40.72,0,0,0-4.78.24c-8.68,1-17.47,4.24-27.67,10-7,4-13.42,9.54-19.77,17.05l-.94,1.11Zm-105.42-185c-39.12,0-70,30.65-70.22,69.77a70.74,70.74,0,0,0,19.49,49.41,69.43,69.43,0,0,0,50.44,21.58h.47c39,0,69.86-30.85,70.24-70.23.08-39.37-30.72-70.36-70.11-70.53ZM339,159.81A35.26,35.26,0,0,0,314,170.54a33.72,33.72,0,0,0-9.82,24.39c.48,21.13,17.42,34.21,32.84,34.21.56,0,1.12,0,1.67,0h.35c.5,0,1,0,1.51,0a32.79,32.79,0,0,0,23.21-10.2,34.79,34.79,0,0,0,9.93-25c-.54-18.8-16.07-34.1-34.62-34.1Z"/></svg>