<svg id="Layer_1" data-name="Layer 1" xmlns="http://www.w3.org/2000/svg" viewBox="0 0 512 512"><defs><style>.cls-1{fill:#666;}</style></defs><path class="cls-1" d="M83.86,437.88c-.5,0-1,0-1.49-.05C78,437.54,75,434.56,75,430.42c-.1-9.74-.1-19.45,0-28.86,0-4.11,3.15-7.12,7.53-7.31a19.87,19.87,0,0,0,3.2-.26,21.25,21.25,0,0,0,.13-3.29l0-187.35c0-.83,0-1.67,0-2.5,0-1.84,0-3.73,0-5.61-.64,0-1.25.08-1.82.08-3.07,0-5.3-.76-6.83-2.32-2.22-2.26-2.46-5.83-2.4-9,.15-7.77.12-15.69.09-23.35,0-3.68,0-7.35,0-11,0-6.57,2.81-9.38,9.36-9.38H148V68.89c0-6.23,2.92-9.13,9.17-9.13H370.76c6.21,0,9.1,2.91,9.1,9.18q0,24.8,0,49.59v20.53c0,.38,0,.8,0,1.13.35,0,.8,0,1.21,0h62.37c6.76,0,9.53,2.73,9.54,9.44q0,18.28,0,36.56c0,6-2.88,8.91-9,9h-.59l-1.23,0H442c0,.38,0,.84,0,1.3v31.31c0,54.3,0,110.45,0,165.68a6.9,6.9,0,0,0,0,.82,3.41,3.41,0,0,0,.42-.05,8.83,8.83,0,0,1,1.2-.08c.34,0,.67,0,1,0l.51,0c4.67.14,7.71,3.11,7.76,7.55.12,10.15.12,19.45,0,28.44-.06,4.77-3.3,7.61-8.67,7.62H83.86Zm7.5-15.38,1.69,0H437.62c0-.25,0-.54,0-.81v-11c0-.38,0-.79,0-1.12H90.26c0,.27,0,.58,0,.88v2.71c0,2.17,0,4.34,0,6.51,0,.74,0,1.37,0,1.9,0,.31,0,.64,0,.93Zm198-28.28c5.79,0,11.59,0,17.23.07h0a4.6,4.6,0,0,0,.69,0,4.25,4.25,0,0,0,.05-.79c-.06-31.44-.06-63.87,0-96.37,0-.24,0-.41,0-.53h-.45c-5.88,0-11.71.06-17.54.06s-11.53,0-17-.07h0a5,5,0,0,0-.7,0,5.36,5.36,0,0,0,0,.74c.07,12.62.06,25.45.05,37.86v21.26c0,12.21,0,24.84,0,37.26,0,.26,0,.44,0,.57l.44,0C277.89,394.24,283.69,394.22,289.32,394.22Zm-50,0c6.53,0,11.52,0,16.17.06h0a5.36,5.36,0,0,0,.74,0,4,4,0,0,0,0-.73c-.05-26.06-.05-52.56-.05-78.19V296.59H220.64c0,.27,0,.59,0,.89q0,23.86,0,47.74v11.09q0,18.54,0,37.09v.83h18.71Zm83.25,0h.4q26.07,0,52.12,0,25.58,0,51.14,0l.48,0c0-.1,0-.23,0-.39-.05-69.63,0-134.36,0-197.89a5.36,5.36,0,0,0,0-.74,5.05,5.05,0,0,0-.71,0q-56,.06-111.9.05H262v0H151.26q-24.91,0-49.83,0h-.29a1.4,1.4,0,0,0,0,.29c.07,2.26.06,4.54,0,6.75,0,.92,0,1.85,0,2.78l0,187.78c0,.49,0,1,0,1.41.41,0,1,0,1.52,0h42q30,0,60,0a4.3,4.3,0,0,0,.61,0,5.48,5.48,0,0,0,0-.7c0-31.91,0-64.36,0-95.74v-7.5c0-6.18,2.91-9.06,9.17-9.06h57.88q21.07,0,42.16,0c3.76,0,6.69,2,7.63,5.1a15,15,0,0,1,.45,4.4c0,30.64,0,66.81,0,102.81C322.57,393.9,322.59,394.12,322.6,394.27Zm68.08-214.4q23.1,0,46.21,0h0a5,5,0,0,0,.75,0,4,4,0,0,0,0-.7c-.11-7.11-.11-14.66,0-23.07,0-.24,0-.41,0-.53s-.29,0-.54,0q-38.42.08-76.79.05H193.12c-33.55,0-68.24,0-102.35-.05-.25,0-.42,0-.54,0s0,.3,0,.55c.06,4.17.05,8.4.05,12.5,0,3,0,6,0,9,0,.6,0,1.12,0,1.57,0,.23,0,.46,0,.68h.62l1.61,0q46.46,0,92.87,0ZM280.5,140.2q41.63,0,83.26.05a5.36,5.36,0,0,0,.74,0,3.83,3.83,0,0,0,.05-.74c-.07-15.76-.06-31.78-.06-47.28V76.46c0-.45,0-.94,0-1.31H226.63q-31.26,0-62.51-.05a5.36,5.36,0,0,0-.74,0,5.29,5.29,0,0,0,0,.73c.06,14.31,0,28.86,0,42.93v19.66c0,.52,0,1,0,1.38,0,.11,0,.24,0,.36H280.5Z"/><path class="cls-1" d="M202.45,121.35V107.6a.9.9,0,0,0-1.7-.42l-5.44,10.31a2.74,2.74,0,0,1-2.44,1.47h0a2.75,2.75,0,0,1-2.44-1.47L185,107.2a.91.91,0,0,0-1.71.42v13.73a2.75,2.75,0,0,1-2.75,2.76h-.46a2.76,2.76,0,0,1-2.76-2.76V96.16a2.77,2.77,0,0,1,2.76-2.76h1A4.41,4.41,0,0,1,185,95.78l7,13.51a.9.9,0,0,0,1.6,0l7.09-13.53a4.41,4.41,0,0,1,3.91-2.37h1a2.77,2.77,0,0,1,2.76,2.76v25.19a2.76,2.76,0,0,1-2.76,2.76h-.41A2.76,2.76,0,0,1,202.45,121.35Z"/><path class="cls-1" d="M224.82,93.4h2.67A2.42,2.42,0,0,1,229.77,95l9.5,25.86a2.42,2.42,0,0,1-2.27,3.26h-.92a2.42,2.42,0,0,1-2.3-1.66l-1.45-4.34a2.43,2.43,0,0,0-2.3-1.66h-7.78a2.42,2.42,0,0,0-2.3,1.66l-1.46,4.35a2.42,2.42,0,0,1-2.3,1.65h-.92a2.42,2.42,0,0,1-2.27-3.26L222.54,95A2.42,2.42,0,0,1,224.82,93.4Zm4.5,15.67-.87-2.61a2.43,2.43,0,0,0-4.6,0l-.87,2.61a2.42,2.42,0,0,0,2.29,3.19H227A2.43,2.43,0,0,0,229.32,109.07Z"/><path class="cls-1" d="M243.85,121.69V95.82a2.42,2.42,0,0,1,2.42-2.42h11.2a8.71,8.71,0,0,1,3.87.87,9.82,9.82,0,0,1,3.12,2.33,10.89,10.89,0,0,1,2,3.29,10,10,0,0,1,.71,3.72,10.35,10.35,0,0,1-.67,3.72,9.48,9.48,0,0,1-1.92,3.13,8.5,8.5,0,0,1-1.13,1,2.39,2.39,0,0,0-.55,3.14l3.51,5.79a2.42,2.42,0,0,1-2.07,3.68h-.92a2.43,2.43,0,0,1-2.06-1.15l-4.9-8a2.41,2.41,0,0,0-2.06-1.15h-2.19a2.42,2.42,0,0,0-2.43,2.42v5.45a2.42,2.42,0,0,1-2.42,2.42h-1.12A2.42,2.42,0,0,1,243.85,121.69Zm6-15.53a2.42,2.42,0,0,0,2.43,2.42h5.06a3.15,3.15,0,0,0,2-.67,4.65,4.65,0,0,0,1.38-1.79,5.87,5.87,0,0,0,.52-2.51,5.33,5.33,0,0,0-.6-2.55,5.23,5.23,0,0,0-1.52-1.78,3.36,3.36,0,0,0-2-.65h-4.84a2.43,2.43,0,0,0-2.43,2.43Z"/><path class="cls-1" d="M272.61,121.69V95.82A2.42,2.42,0,0,1,275,93.4h1.13a2.43,2.43,0,0,1,2.42,2.42v5.76a2.42,2.42,0,0,0,4.24,1.6l7.92-9a2.44,2.44,0,0,1,1.82-.82h.21a2.42,2.42,0,0,1,1.83,4l-7.07,8.23a2.43,2.43,0,0,0-.12,3L296,120.26a2.42,2.42,0,0,1-2,3.85h-.73a2.39,2.39,0,0,1-2-1l-7.1-9.89a2.43,2.43,0,0,0-3.71-.27l-1.24,1.28a2.43,2.43,0,0,0-.68,1.69v5.78a2.42,2.42,0,0,1-2.42,2.42H275A2.42,2.42,0,0,1,272.61,121.69Z"/><path class="cls-1" d="M322.87,121.3v.39a2.42,2.42,0,0,1-2.42,2.42H304a2.42,2.42,0,0,1-2.42-2.42V95.82A2.42,2.42,0,0,1,304,93.4h16.09a2.42,2.42,0,0,1,2.42,2.42v.39a2.42,2.42,0,0,1-2.42,2.42H309.94a2.42,2.42,0,0,0-2.42,2.43v2.55a2.42,2.42,0,0,0,2.42,2.42h8a2.43,2.43,0,0,1,2.43,2.42h0a2.43,2.43,0,0,1-2.43,2.43h-8a2.42,2.42,0,0,0-2.42,2.42v3.15a2.42,2.42,0,0,0,2.42,2.43h10.51A2.42,2.42,0,0,1,322.87,121.3Z"/><path class="cls-1" d="M348,98.63h-4.93a2.43,2.43,0,0,0-2.42,2.43v20.63a2.42,2.42,0,0,1-2.42,2.42h-1.08a2.42,2.42,0,0,1-2.42-2.42V101.06a2.43,2.43,0,0,0-2.43-2.43h-5a2.42,2.42,0,0,1-2.43-2.42v-.39a2.43,2.43,0,0,1,2.43-2.42H348a2.43,2.43,0,0,1,2.43,2.42v.39A2.42,2.42,0,0,1,348,98.63Z"/><path class="cls-1" d="M165.08,255.2a10.4,10.4,0,0,1,10.39,10.38c0,12.8,0,33.9,0,42.06v15.91q0,17.29,0,34.59c0,5.3-3.21,8.47-8.57,8.47h-46c-5.76,0-8.81-3.07-8.81-8.86q0-46.11,0-92.2a10.39,10.39,0,0,1,10.41-10.4Zm-37.71,96.11q9.24,0,18.44-.05,7,0,14.07,0h.26c0-.1,0-.24,0-.43,0-11.76,0-22.25,0-32.05,0-.13,0-.23,0-.31h-.23c-2.49.05-4.89.06-7.28.06l-9,0h-8.93q-3.7,0-7.39,0c0,10.47,0,21.51,0,32.81Zm15.51-48.12q8.53,0,17.06,0h.23V303c0-9.79,0-20.41,0-32.46v-.14h0l-14.15,0q-9.27,0-18.55-.06h-.06v.09c0,4,0,8,0,11.86v4.5c0,1.5,0,3,0,4.52,0,3.88,0,7.89,0,11.84v0h.07Z"/><path class="cls-1" d="M406,255.2a10.39,10.39,0,0,1,10.38,10.38c0,12.8,0,33.9,0,42.06v15.91q0,17.29,0,34.59c0,5.3-3.22,8.47-8.58,8.47h-46c-5.77,0-8.81-3.07-8.81-8.86q0-46.11,0-92.2a10.39,10.39,0,0,1,10.41-10.4Zm-37.71,96.11q9.24,0,18.44-.05,7,0,14.06,0H401c0-.1,0-.24,0-.43,0-11.76,0-22.25,0-32.05v-.31h-.23c-2.49.05-4.89.06-7.29.06l-9,0h-8.94q-3.69,0-7.39,0c.06,10.47.06,21.51,0,32.81Zm15.51-48.12q8.53,0,17.06,0h.23V303c-.05-9.79-.05-20.41,0-32.46v-.14h0l-14.15,0q-9.28,0-18.55-.06h-.07v.09c.06,4,.05,8,0,11.86,0,.89,0,1.77,0,2.66l0,1.84c0,1.5,0,3,0,4.52,0,3.88,0,7.89,0,11.84v0h.06Z"/></svg>