<svg id="Layer_1" data-name="Layer 1" xmlns="http://www.w3.org/2000/svg" viewBox="0 0 512 512"><defs><style>.cls-1,.cls-3{opacity:0.25;}.cls-2,.cls-3{fill:#1a1a1a;}</style></defs><g id="No_Favourite" data-name="No Favourite"><g class="cls-1"><path class="cls-2" d="M138,441.11v24.71h-3v-30.2h2.47l19.81,25.18V435.67h3v30.15h-2.76Z"/><path class="cls-2" d="M176.37,466.24a10.64,10.64,0,0,1-7.93-3.4,11.73,11.73,0,0,1-3.08-8,11.89,11.89,0,0,1,.81-4.42,11.25,11.25,0,0,1,2.3-3.64,10.93,10.93,0,0,1,3.5-2.5,10.72,10.72,0,0,1,4.4-.9,10.53,10.53,0,0,1,4.38.9,10.89,10.89,0,0,1,3.49,2.5,11.42,11.42,0,0,1,2.3,3.64,11.89,11.89,0,0,1,.81,4.42,11.69,11.69,0,0,1-.81,4.33,11.54,11.54,0,0,1-2.28,3.64,10.59,10.59,0,0,1-7.89,3.4Zm-8.07-11.33a9.24,9.24,0,0,0,1.08,4.45,8.4,8.4,0,0,0,2.91,3.17,7.43,7.43,0,0,0,4,1.16,7.34,7.34,0,0,0,4-1.18,8.74,8.74,0,0,0,2.94-3.23,9.42,9.42,0,0,0,1.1-4.5,9.18,9.18,0,0,0-1.1-4.43,8.76,8.76,0,0,0-2.94-3.21,7.26,7.26,0,0,0-4-1.18,7.16,7.16,0,0,0-4,1.22,8.89,8.89,0,0,0-2.91,3.23A9.35,9.35,0,0,0,168.3,454.91Z"/><path class="cls-2" d="M203.63,465.82v-30.2h19.82v2.64H206.61v11.1h14.2v2.47h-14.2v14Z"/><path class="cls-2" d="M225.15,459.48a5.59,5.59,0,0,1,1.19-3.57,7.62,7.62,0,0,1,3.3-2.33,13.45,13.45,0,0,1,4.86-.82,23.2,23.2,0,0,1,3.36.26,15.07,15.07,0,0,1,3.11.76v-1.86a6,6,0,0,0-1.66-4.44,6.24,6.24,0,0,0-4.59-1.65,9.75,9.75,0,0,0-3.51.66,17.4,17.4,0,0,0-3.59,1.93l-1.11-2a19,19,0,0,1,4.25-2.23,12.47,12.47,0,0,1,4.25-.74,8.86,8.86,0,0,1,6.47,2.32,8.55,8.55,0,0,1,2.38,6.42v10.19a1.23,1.23,0,0,0,.25.86,1.17,1.17,0,0,0,.81.32v2.3c-.31,0-.58.05-.81.08a1.43,1.43,0,0,1-.51,0,2.13,2.13,0,0,1-1.61-.68,2.28,2.28,0,0,1-.6-1.36l0-1.62a9.74,9.74,0,0,1-3.87,3,12.06,12.06,0,0,1-4.85,1,8.1,8.1,0,0,1-3.85-.91,6.74,6.74,0,0,1-2.67-2.45A6.31,6.31,0,0,1,225.15,459.48ZM240,461.16a5.87,5.87,0,0,0,.72-1.13,2.39,2.39,0,0,0,.26-1v-3.21a19,19,0,0,0-3-.84,17.36,17.36,0,0,0-3.13-.29,9.11,9.11,0,0,0-5,1.22,3.76,3.76,0,0,0-1.92,3.33,4.45,4.45,0,0,0,.64,2.29,4.92,4.92,0,0,0,1.87,1.77,5.73,5.73,0,0,0,2.89.7,9.53,9.53,0,0,0,3.89-.8A6.9,6.9,0,0,0,240,461.16Z"/><path class="cls-2" d="M255.77,465.82l-9-22.07h3l7.57,19.19L265,443.75h2.85l-9,22.07Z"/><path class="cls-2" d="M280.56,466.24a10.6,10.6,0,0,1-7.93-3.4,11.54,11.54,0,0,1-2.28-3.64,11.69,11.69,0,0,1-.81-4.33,11.89,11.89,0,0,1,.81-4.42,11.42,11.42,0,0,1,2.3-3.64,10.87,10.87,0,0,1,3.51-2.5,10.65,10.65,0,0,1,4.4-.9,10.53,10.53,0,0,1,4.38.9,11.11,11.11,0,0,1,3.49,2.5,11.39,11.39,0,0,1,2.29,3.64,11.89,11.89,0,0,1,.81,4.42,11.73,11.73,0,0,1-3.08,8,10.65,10.65,0,0,1-3.49,2.49A10.54,10.54,0,0,1,280.56,466.24Zm-8.08-11.33a9.24,9.24,0,0,0,1.08,4.45,8.51,8.51,0,0,0,2.92,3.17,7.56,7.56,0,0,0,8.08,0,8.81,8.81,0,0,0,2.93-3.23,9.32,9.32,0,0,0,1.11-4.5,9.07,9.07,0,0,0-1.11-4.43,8.82,8.82,0,0,0-2.93-3.21,7.28,7.28,0,0,0-4-1.18,7.12,7.12,0,0,0-4,1.22,9,9,0,0,0-2.92,3.23A9.35,9.35,0,0,0,272.48,454.91Z"/><path class="cls-2" d="M296.16,456.71v-13h2.9v12.44a10,10,0,0,0,1.29,5.64,4.4,4.4,0,0,0,3.85,1.86,7.85,7.85,0,0,0,3.3-.74,8.59,8.59,0,0,0,2.82-2.12,9.29,9.29,0,0,0,1.88-3.19V443.75h2.89v18.58a1.24,1.24,0,0,0,.25.87,1.17,1.17,0,0,0,.77.32v2.3l-.81.06-.55,0a2.4,2.4,0,0,1-1.47-.68,2.07,2.07,0,0,1-.66-1.44l-.08-3a10.68,10.68,0,0,1-9.32,5.42,6.14,6.14,0,0,1-5.27-2.41C296.76,462.22,296.16,459.84,296.16,456.71Z"/><path class="cls-2" d="M332.69,446.21a9.16,9.16,0,0,0-5.08,1.62,8.06,8.06,0,0,0-3.08,4.21v13.78h-2.89V443.75h2.72V449a10.5,10.5,0,0,1,3-3.79,7.52,7.52,0,0,1,4-1.61,7.24,7.24,0,0,1,.74-.05,2.58,2.58,0,0,1,.53.05Z"/><path class="cls-2" d="M336.56,439v-4.26h2.89V439Zm0,26.79V443.66h2.89v22.16Z"/><path class="cls-2" d="M356.46,464.92c-.22.09-.58.24-1.06.47a9.24,9.24,0,0,1-1.74.6,9.15,9.15,0,0,1-2.22.25,5.78,5.78,0,0,1-2.31-.47,3.85,3.85,0,0,1-1.73-1.43,4.23,4.23,0,0,1-.63-2.37V446H343.7v-2.29h3.07v-7.49h2.89v7.49h5.1V446h-5.1v15.13a2.3,2.3,0,0,0,.87,1.79,2.9,2.9,0,0,0,1.81.6,5.66,5.66,0,0,0,2.17-.4,6.36,6.36,0,0,0,1.19-.58Z"/><path class="cls-2" d="M369.39,466.24a10.66,10.66,0,0,1-4.42-.91,10.84,10.84,0,0,1-3.53-2.5,11.45,11.45,0,0,1-2.32-3.66,12,12,0,0,1-.83-4.45,11.39,11.39,0,0,1,1.43-5.66,10.85,10.85,0,0,1,3.93-4.11,10.63,10.63,0,0,1,5.7-1.54,10.41,10.41,0,0,1,5.72,1.56,11.09,11.09,0,0,1,3.84,4.12,11.38,11.38,0,0,1,1.41,5.59v.66a2.68,2.68,0,0,1,0,.48h-19a9.55,9.55,0,0,0,1.34,4.21,8.53,8.53,0,0,0,2.93,2.92,7.56,7.56,0,0,0,3.94,1.08,8.12,8.12,0,0,0,4.1-1.11,6.06,6.06,0,0,0,2.7-2.89l2.51.68a8.3,8.3,0,0,1-2.08,2.85,10.15,10.15,0,0,1-3.3,2A11.51,11.51,0,0,1,369.39,466.24Zm-8.17-12.5H377.6a9.15,9.15,0,0,0-1.3-4.21,8.21,8.21,0,0,0-2.93-2.84,7.87,7.87,0,0,0-4-1,7.77,7.77,0,0,0-4,1,8.21,8.21,0,0,0-2.91,2.86A9.22,9.22,0,0,0,361.22,453.74Z"/></g><path class="cls-3" d="M229.53,396.76C111,289,32.64,217.83,32.64,134.47c0-65.61,51.39-117,117-117,36.5,0,72.56,16.75,96.46,44.82h0a13,13,0,0,0,19.79,0h0c23.91-28.08,60-44.83,96.47-44.83,65.61,0,117,51.39,117,117,0,83.51-78.57,154.76-197.51,262.62L256,420.65Zm26.45-4,11.45-11.44c114.82-104,190.66-172.66,190.66-246.86,0-54.58-41.15-95.73-95.73-95.73-34.3,0-67.73,18-86.43,45.39a24.05,24.05,0,0,1-19.87,10.39h0A24,24,0,0,1,236.25,84.2c-18.85-27.37-52.36-45.46-86.61-45.46-54.58,0-95.73,41.15-95.73,95.73,0,74.21,75.93,143,190.87,247.06Z"/></g></svg>