<svg id="Layer_1" data-name="Layer 1" xmlns="http://www.w3.org/2000/svg" viewBox="0 0 512 512"><defs><style>.cls-1{fill:#666;}</style></defs><g id="Trash"><path class="cls-1" d="M170.09,465.81a61.25,61.25,0,0,1-61.19-61.18V213.84c0-5.8,3.75-9.54,9.54-9.54S128,208,128,213.84V404.63a42.16,42.16,0,0,0,42.11,42.11H340.85A42.16,42.16,0,0,0,383,404.63V213.84c0-5.8,3.74-9.54,9.54-9.54S402,208,402,213.84V404.63c0,33.16-28,61.18-61.19,61.18Z"/><path class="cls-1" d="M114.22,181.21C90.16,181.21,72,163.52,72,140.05a41.76,41.76,0,0,1,42.21-42.21h81l.14-.83a61,61,0,0,1,120.3,0l.15.83h81C421,97.84,440,115.92,440,139a41.76,41.76,0,0,1-42.21,42.21Zm0-65.35a23.14,23.14,0,0,0,0,46.28h282.5c12.9,0,23.08-9.7,24.19-23.06a23.18,23.18,0,0,0-23.13-23.22Zm141.25-50.6c-19,0-35.51,12.57-41,31.29l-.37,1.29h81.66l-.29-1.24A40.75,40.75,0,0,0,255.47,65.26Z"/><path class="cls-1" d="M181.69,414.16c-5.8,0-9.54-3.74-9.54-9.53v-176c0-5.79,3.74-9.53,9.54-9.53s9.53,3.74,9.53,9.53v176C191.22,409.35,186.41,414.16,181.69,414.16Z"/><path class="cls-1" d="M329.26,414.16c-5.79,0-9.54-3.74-9.54-9.53v-176c0-5.79,3.75-9.53,9.54-9.53s9.54,3.74,9.54,9.53v176C338.8,409.35,334,414.16,329.26,414.16Z"/><path class="cls-1" d="M255.47,414.16c-5.79,0-9.53-3.74-9.53-9.53v-176c0-5.79,3.74-9.53,9.53-9.53s9.54,3.74,9.54,9.53v176C265,409.35,260.2,414.16,255.47,414.16Z"/></g></svg>