<svg id="Layer_1" data-name="Layer 1" xmlns="http://www.w3.org/2000/svg" viewBox="0 0 512 512"><defs><style>.cls-1{opacity:0.25;}.cls-2{fill:#1a1a1a;}</style></defs><g id="no_Notification" data-name="no Notification"><g class="cls-1"><path class="cls-2" d="M80.55,458.12l9.86,16.24,10-16.24h3.24l-11.7,19v11.23h-3V477L77.27,458.12Z"/><path class="cls-2" d="M113,488.73a10.81,10.81,0,0,1-4.44-.9,10.68,10.68,0,0,1-3.49-2.5,11.73,11.73,0,0,1-3.08-8,11.93,11.93,0,0,1,.81-4.42,11.39,11.39,0,0,1,2.29-3.64,11.06,11.06,0,0,1,3.51-2.49,10.57,10.57,0,0,1,4.4-.91,10.38,10.38,0,0,1,4.38.91,10.86,10.86,0,0,1,3.49,2.49,11.42,11.42,0,0,1,2.3,3.64,11.93,11.93,0,0,1,.81,4.42,11.68,11.68,0,0,1-3.09,8,10.5,10.5,0,0,1-7.89,3.4Zm-8.08-11.33a9.22,9.22,0,0,0,1.09,4.45,8.33,8.33,0,0,0,2.91,3.17,7.35,7.35,0,0,0,4,1.16,7.26,7.26,0,0,0,4-1.18,8.67,8.67,0,0,0,2.94-3.23,9.37,9.37,0,0,0,1.1-4.5,9.18,9.18,0,0,0-1.1-4.43,8.76,8.76,0,0,0-2.94-3.21,7.26,7.26,0,0,0-4-1.18,7.16,7.16,0,0,0-4,1.22A9,9,0,0,0,106,472.9,9.36,9.36,0,0,0,104.91,477.4Z"/><path class="cls-2" d="M128.6,479.2v-13h2.89v12.45a9.86,9.86,0,0,0,1.3,5.63,4.38,4.38,0,0,0,3.85,1.86,7.63,7.63,0,0,0,3.29-.74,8.63,8.63,0,0,0,2.83-2.11,9.31,9.31,0,0,0,1.87-3.2V466.24h2.89v18.59a1.23,1.23,0,0,0,.26.86,1.09,1.09,0,0,0,.76.32v2.3l-.8.06a5.53,5.53,0,0,1-.56,0,2.38,2.38,0,0,1-1.46-.67,2,2,0,0,1-.66-1.44l-.09-3a10.43,10.43,0,0,1-3.93,4,10.56,10.56,0,0,1-5.38,1.44,6.13,6.13,0,0,1-5.27-2.41Q128.6,483.91,128.6,479.2Z"/><path class="cls-2" d="M165.13,468.71a9.07,9.07,0,0,0-5.08,1.61,8.17,8.17,0,0,0-3.09,4.21v13.78h-2.89V466.24h2.72v5.23a10.61,10.61,0,0,1,3-3.79,7.52,7.52,0,0,1,4-1.61,7.14,7.14,0,0,1,.75,0,2.66,2.66,0,0,1,.53,0Z"/><path class="cls-2" d="M177.59,473a16.07,16.07,0,0,1,.95-5.42,15.88,15.88,0,0,1,2.79-4.85,13.44,13.44,0,0,1,4.51-3.49,13.82,13.82,0,0,1,6.08-1.3,12.53,12.53,0,0,1,6.91,1.85,11.41,11.41,0,0,1,4.23,4.75l-2.34,1.44a8.87,8.87,0,0,0-2.47-3.17,9.58,9.58,0,0,0-3.16-1.68,11.48,11.48,0,0,0-3.34-.51,10.18,10.18,0,0,0-4.81,1.09,10.46,10.46,0,0,0-3.5,2.89,12.57,12.57,0,0,0-2.15,4,14.7,14.7,0,0,0-.73,4.53,13.86,13.86,0,0,0,.85,4.8A13.08,13.08,0,0,0,183.8,482a11.51,11.51,0,0,0,3.59,2.81,9.73,9.73,0,0,0,4.49,1,11.15,11.15,0,0,0,3.48-.59,10.94,10.94,0,0,0,3.34-1.83,8.94,8.94,0,0,0,2.49-3.19l2.47,1.27a9.54,9.54,0,0,1-2.9,3.83,13.91,13.91,0,0,1-4.36,2.38,14.6,14.6,0,0,1-4.69.81,12.16,12.16,0,0,1-5.7-1.34,14.53,14.53,0,0,1-4.49-3.57,16.46,16.46,0,0,1-2.91-5A16.22,16.22,0,0,1,177.59,473Z"/><path class="cls-2" d="M219.22,468.71a9.07,9.07,0,0,0-5.08,1.61,8.17,8.17,0,0,0-3.09,4.21v13.78h-2.89V466.24h2.72v5.23a10.61,10.61,0,0,1,3-3.79,7.55,7.55,0,0,1,4-1.61,7.14,7.14,0,0,1,.75,0,2.66,2.66,0,0,1,.53,0Z"/><path class="cls-2" d="M221.05,482a5.53,5.53,0,0,1,1.19-3.57,7.63,7.63,0,0,1,3.29-2.32,13.32,13.32,0,0,1,4.87-.83,23.2,23.2,0,0,1,3.36.26,15.23,15.23,0,0,1,3.11.76v-1.86a6,6,0,0,0-1.66-4.44,6.24,6.24,0,0,0-4.6-1.65,9.66,9.66,0,0,0-3.5.66,17.79,17.79,0,0,0-3.6,1.94l-1.1-2a18.41,18.41,0,0,1,4.25-2.24,12.72,12.72,0,0,1,4.25-.74,8.87,8.87,0,0,1,6.47,2.32,8.6,8.6,0,0,1,2.38,6.43v10.18a1.27,1.27,0,0,0,.25.87,1.21,1.21,0,0,0,.81.31v2.3l-.81.08a1.43,1.43,0,0,1-.51,0,2.07,2.07,0,0,1-1.61-.68,2.26,2.26,0,0,1-.6-1.36l0-1.61a9.72,9.72,0,0,1-3.87,2.95,11.93,11.93,0,0,1-4.85,1,8.19,8.19,0,0,1-3.85-.9,6.86,6.86,0,0,1-2.68-2.46A6.36,6.36,0,0,1,221.05,482Zm14.84,1.69a6.24,6.24,0,0,0,.72-1.14,2.39,2.39,0,0,0,.26-1v-3.2a18,18,0,0,0-3-.85,17.36,17.36,0,0,0-3.13-.29,9.26,9.26,0,0,0-5,1.22,3.79,3.79,0,0,0-1.91,3.33,4.39,4.39,0,0,0,.64,2.3,5,5,0,0,0,1.87,1.77,5.83,5.83,0,0,0,2.89.69,9.37,9.37,0,0,0,3.89-.8A7,7,0,0,0,235.89,483.66Z"/><path class="cls-2" d="M256.38,487.42c-.22.08-.58.24-1.06.46a9.24,9.24,0,0,1-1.74.6,9.12,9.12,0,0,1-2.21.25,5.63,5.63,0,0,1-2.32-.47,3.83,3.83,0,0,1-1.72-1.43,4.15,4.15,0,0,1-.64-2.37V468.54h-3.06v-2.3h3.06v-7.49h2.89v7.49h5.1v2.3h-5.1v15.12a2.37,2.37,0,0,0,.87,1.8,2.91,2.91,0,0,0,1.81.59,5.63,5.63,0,0,0,2.17-.4,7,7,0,0,0,1.19-.57Z"/><path class="cls-2" d="M270.84,461.52v-4.25h2.89v4.25Zm0,26.79V466.15h2.89v22.16Z"/><path class="cls-2" d="M287.38,488.73a14,14,0,0,1-5.06-.89,10.58,10.58,0,0,1-4-2.72l1.19-2a13.05,13.05,0,0,0,3.77,2.53,10.43,10.43,0,0,0,4,.78,7.72,7.72,0,0,0,4.21-1,3.33,3.33,0,0,0,1.61-3,2.54,2.54,0,0,0-.79-2,6.05,6.05,0,0,0-2.25-1.14c-1-.3-2.15-.61-3.51-.95a27.81,27.81,0,0,1-3.85-1.33,5.71,5.71,0,0,1-2.33-1.78,4.63,4.63,0,0,1-.79-2.81,5.75,5.75,0,0,1,1.08-3.58,6.79,6.79,0,0,1,3-2.15,11.59,11.59,0,0,1,4.23-.74,11.74,11.74,0,0,1,4.51.81,8.3,8.3,0,0,1,3.19,2.25l-1.41,2a7.31,7.31,0,0,0-2.82-2,9.67,9.67,0,0,0-3.64-.66,9.16,9.16,0,0,0-2.59.36,4.38,4.38,0,0,0-2,1.18,3.11,3.11,0,0,0-.79,2.26,2.63,2.63,0,0,0,.6,1.84,4.45,4.45,0,0,0,1.78,1.1c.8.29,1.77.61,2.94.95,1.67.45,3.13.91,4.38,1.37a7.53,7.53,0,0,1,2.89,1.8,4.35,4.35,0,0,1,1,3.08,5.65,5.65,0,0,1-2.34,4.82A10.1,10.1,0,0,1,287.38,488.73Z"/><path class="cls-2" d="M321.06,488.73a10.77,10.77,0,0,1-7.95-3.41,11.63,11.63,0,0,1-2.32-3.66,12,12,0,0,1-.83-4.45,11.53,11.53,0,0,1,1.43-5.66,11.07,11.07,0,0,1,3.93-4.11,10.63,10.63,0,0,1,5.7-1.54,10.41,10.41,0,0,1,5.72,1.56,11.28,11.28,0,0,1,3.85,4.12,11.48,11.48,0,0,1,1.4,5.59v.66a2.13,2.13,0,0,1,0,.49H313a9.59,9.59,0,0,0,1.34,4.21,8.44,8.44,0,0,0,2.94,2.91,7.5,7.5,0,0,0,3.93,1.08,8.21,8.21,0,0,0,4.1-1.1,6.1,6.1,0,0,0,2.7-2.89l2.51.68a8.36,8.36,0,0,1-2.08,2.84,10,10,0,0,1-3.3,2A11.51,11.51,0,0,1,321.06,488.73Zm-8.16-12.5h16.37A9.15,9.15,0,0,0,328,472a8.3,8.3,0,0,0-2.93-2.84,8,8,0,0,0-4-1,7.84,7.84,0,0,0-3.95,1,8.24,8.24,0,0,0-2.92,2.86A9.09,9.09,0,0,0,312.9,476.23Z"/><path class="cls-2" d="M369.41,488.31h-2.89V476q0-3.84-1.23-5.66a4.14,4.14,0,0,0-3.66-1.81,6.56,6.56,0,0,0-4.49,1.77,9.51,9.51,0,0,0-2.78,4.56v13.44h-2.89V476q0-3.88-1.19-5.68a4.09,4.09,0,0,0-3.66-1.79,6.67,6.67,0,0,0-4.47,1.72,9.21,9.21,0,0,0-2.8,4.56v13.49h-2.89V466.24h2.63v5a10.62,10.62,0,0,1,3.59-4,8.89,8.89,0,0,1,4.87-1.39,6.36,6.36,0,0,1,4.47,1.56,6.75,6.75,0,0,1,2.08,4.1,11.66,11.66,0,0,1,3.68-4.22,8.55,8.55,0,0,1,4.87-1.44,6.69,6.69,0,0,1,3.17.68,5.33,5.33,0,0,1,2.08,1.92,8.82,8.82,0,0,1,1.15,3,19.49,19.49,0,0,1,.36,3.91Z"/><path class="cls-2" d="M386.85,488.73a8.89,8.89,0,0,1-5-1.43,11.08,11.08,0,0,1-3.46-3.56v13.63h-2.9V466.24h2.6v4.31a10.16,10.16,0,0,1,3.53-3.36,9.18,9.18,0,0,1,4.72-1.29,9.4,9.4,0,0,1,4.21,1,10.6,10.6,0,0,1,3.31,2.56,11.88,11.88,0,0,1,2.19,3.66,11.61,11.61,0,0,1,.79,4.25,13,13,0,0,1-1.25,5.68,10.54,10.54,0,0,1-3.51,4.17A9,9,0,0,1,386.85,488.73Zm-.81-2.55a7,7,0,0,0,3.27-.74,7.78,7.78,0,0,0,2.49-2,9.28,9.28,0,0,0,1.59-2.85,9.86,9.86,0,0,0,.56-3.27,9.34,9.34,0,0,0-.62-3.38,8.71,8.71,0,0,0-1.76-2.83,8.93,8.93,0,0,0-2.64-1.94,7.32,7.32,0,0,0-3.23-.72,6.88,6.88,0,0,0-2.3.42,9,9,0,0,0-2.27,1.2,8.17,8.17,0,0,0-1.81,1.75,4.62,4.62,0,0,0-.89,2.07v6.77a10,10,0,0,0,1.82,2.8,9,9,0,0,0,2.66,2A7,7,0,0,0,386,486.18Z"/><path class="cls-2" d="M412.15,487.42c-.23.08-.58.24-1.07.46a9.24,9.24,0,0,1-1.74.6,9.12,9.12,0,0,1-2.21.25,5.66,5.66,0,0,1-2.32-.47,3.83,3.83,0,0,1-1.72-1.43,4.15,4.15,0,0,1-.64-2.37V468.54h-3.06v-2.3h3.06v-7.49h2.89v7.49h5.11v2.3h-5.11v15.12a2.37,2.37,0,0,0,.87,1.8,2.91,2.91,0,0,0,1.81.59,5.59,5.59,0,0,0,2.17-.4,7,7,0,0,0,1.19-.57Z"/><path class="cls-2" d="M416.82,495.11l1.15.07a2.47,2.47,0,0,0,.81-.07,1.69,1.69,0,0,0,1-.59,7.73,7.73,0,0,0,1.1-1.95q.64-1.44,1.79-4.24L413,466.24h3.06l8.12,19.13,7.49-19.13h2.89l-11.48,28.5a5,5,0,0,1-.9,1.5,4.14,4.14,0,0,1-1.46,1.11,5.81,5.81,0,0,1-2.15.44,4.15,4.15,0,0,1-.79,0c-.27,0-.59-.05-1-.1Z"/></g></g><g id="No_Card" data-name="No Card" class="cls-1"><path d="M389.48,390.66,355.32,147.14a37.21,37.21,0,0,0-36.7-31.9H302.44v-26a29.43,29.43,0,0,0-29.39-29.4H238.61a29.43,29.43,0,0,0-29.39,29.4v26H192.5a37.19,37.19,0,0,0-36.71,32L122.5,390.79a37,37,0,0,0,36.71,42.07H352.79a37,37,0,0,0,36.69-42.2ZM222.9,89.25a15.73,15.73,0,0,1,15.71-15.71h34.44a15.72,15.72,0,0,1,15.7,15.71v26H222.9Zm-30.4,39.68H318.62A23.46,23.46,0,0,1,341.76,149l2.05,14.57H167.37l2-14.48A23.46,23.46,0,0,1,192.5,128.93Zm-27,48.37H345.73L372.62,369H139.29ZM370.42,411.14a23.38,23.38,0,0,1-17.63,8H159.21a23.37,23.37,0,0,1-23.15-26.53l1.36-9.94H374.54l1.38,9.86A23.36,23.36,0,0,1,370.42,411.14Z"/><path d="M226.27,303.67h56.85a2.57,2.57,0,1,0,0-5.13H226.27a2.57,2.57,0,1,0,0,5.13Z"/><circle cx="235.06" cy="259.06" r="8.7"/><circle cx="275.51" cy="259.06" r="8.7"/></g></svg>