<svg id="Layer_1" data-name="Layer 1" xmlns="http://www.w3.org/2000/svg" viewBox="0 0 512 512"><defs><style>.cls-1,.cls-3,.cls-4{opacity:0.25;}.cls-2,.cls-3,.cls-4{fill:#1a1a1a;}.cls-3{font-size:37.45px;}.cls-3,.cls-4{font-family:Raleway-Black, Raleway;font-weight:800;}.cls-4{font-size:48.75px;}</style></defs><g id="no_Notification" data-name="no Notification"><g class="cls-1"><path class="cls-2" d="M255.09,370c-44.24,0-88.48-.31-132.72.12-24.49.24-39.5-14.69-44.83-34.9-2.18-8.26-1-16,1.24-23.87,3.58-12.46,9.86-23.4,19.59-32,8.45-7.46,14.6-16.44,19.5-26.41,8.94-18.16,13.64-37.55,16.38-57.48,2-14.43,2.25-29,3-43.51,1.79-35.28,15-65.28,42.59-88.17a107.69,107.69,0,0,1,31-17.59,4.46,4.46,0,0,0,2.93-3,44.59,44.59,0,0,1,47.45-28.66c18.32,2.41,31.06,12.1,37.68,29.57a4.78,4.78,0,0,0,2.51,2.19c18.32,7.69,34.41,18.55,47.52,33.57a100.29,100.29,0,0,1,24.84,56.77c.92,8.85.86,17.81,1.35,26.71,1.41,25.47,4.82,50.6,13.17,74.84,3.48,10.1,7.76,19.88,14.32,28.4a87.45,87.45,0,0,0,10.53,11.32c14.61,13.18,22.81,29.45,22.53,49.14-.29,20.38-12.7,40.89-41.05,42.68-2.24.14-4.49.16-6.74.16H255.09ZM119.18,353.65c.86-.07,1.73-.1,2.6-.1h1.33l265,0c1.49,0,3,0,4.49-.05,16.24-.71,27-12.32,26-28.25-.83-14.1-6.73-25.65-17.18-35.19a99.64,99.64,0,0,1-13.62-15.18c-9.77-13.54-15.54-29-19.91-45-7.27-26.64-10.15-53.86-10.42-81.42a87.17,87.17,0,0,0-10.54-41.66c-12.61-23-32.17-37.73-56.42-46.67-4.05-1.5-6.4-3.87-7.34-8.17C280.43,39.34,269.11,30.66,256,30.75s-24.38,8.84-27,21.47a10.12,10.12,0,0,1-6.87,7.47,92.85,92.85,0,0,0-29.24,15c-25,19.58-36.64,46-38.53,77.11-.78,12.87-.93,25.79-2.19,38.61-2.35,23.78-7.69,46.88-18.1,68.57-5.39,11.22-11.79,21.84-21.4,30a54.48,54.48,0,0,0-17.53,27.41c-1.3,4.61-2.47,9.22-1.2,14.12,2.08,8,5.34,15.14,12.78,19.59a25.82,25.82,0,0,0,12.51,3.49Z"/><path class="cls-2" d="M254.55,434.13c-19.74-.56-38.29-7.07-53.19-22.4a53.06,53.06,0,0,1-12.77-20.93,12.62,12.62,0,0,1-.29-5.92,7.16,7.16,0,0,1,6.47-5.68,7.56,7.56,0,0,1,7.59,4.55c.87,1.9,1.48,3.93,2.42,5.81,5.71,11.46,15,19,26.78,23.39,21.75,8.07,42.56,6.18,61.78-7.33a41,41,0,0,0,15.33-20.33c1.72-4.9,5.75-7.21,9.84-5.8,4.24,1.46,6.37,6.17,4.75,10.94-4.49,13.22-13,23.32-24.52,31C285.76,430.06,271.31,433.89,254.55,434.13Z"/></g><g class="cls-1"><path class="cls-2" d="M71.58,463.6v24.71h-3V458.12h2.47l19.81,25.17V458.16h3v30.15H91.09Z"/><path class="cls-2" d="M109.93,488.73a10.81,10.81,0,0,1-4.44-.9,10.68,10.68,0,0,1-3.49-2.5,11.34,11.34,0,0,1-2.27-3.64,11.65,11.65,0,0,1-.81-4.33,11.93,11.93,0,0,1,.81-4.42A11.22,11.22,0,0,1,102,469.3a11,11,0,0,1,3.51-2.49,10.54,10.54,0,0,1,4.4-.91,10.38,10.38,0,0,1,4.38.91,11,11,0,0,1,3.49,2.49,11.42,11.42,0,0,1,2.3,3.64,12.13,12.13,0,0,1,.8,4.42,11.85,11.85,0,0,1-.8,4.33,11.54,11.54,0,0,1-2.28,3.64,10.54,10.54,0,0,1-7.89,3.4Zm-8.08-11.33a9.11,9.11,0,0,0,1.09,4.45,8.33,8.33,0,0,0,2.91,3.17,7.56,7.56,0,0,0,8.08,0,8.56,8.56,0,0,0,2.93-3.23,9.26,9.26,0,0,0,1.11-4.5,9.07,9.07,0,0,0-1.11-4.43,8.65,8.65,0,0,0-2.93-3.21,7.28,7.28,0,0,0-4-1.18,7.16,7.16,0,0,0-4,1.22,9,9,0,0,0-2.91,3.23A9.25,9.25,0,0,0,101.85,477.4Z"/><path class="cls-2" d="M140.17,463.6v24.71h-3V458.12h2.47l19.81,25.17V458.16h3v30.15h-2.77Z"/><path class="cls-2" d="M178.52,488.73a10.81,10.81,0,0,1-4.44-.9,10.68,10.68,0,0,1-3.49-2.5,11.52,11.52,0,0,1-2.27-3.64,11.65,11.65,0,0,1-.81-4.33,11.93,11.93,0,0,1,.81-4.42,11.39,11.39,0,0,1,2.29-3.64,11.06,11.06,0,0,1,3.51-2.49,10.57,10.57,0,0,1,4.4-.91,10.38,10.38,0,0,1,4.38.91,10.86,10.86,0,0,1,3.49,2.49,11.42,11.42,0,0,1,2.3,3.64,12.13,12.13,0,0,1,.8,4.42,11.85,11.85,0,0,1-.8,4.33,11.54,11.54,0,0,1-2.28,3.64,10.54,10.54,0,0,1-7.89,3.4Zm-8.08-11.33a9.22,9.22,0,0,0,1.09,4.45,8.33,8.33,0,0,0,2.91,3.17,7.56,7.56,0,0,0,8.08,0,8.56,8.56,0,0,0,2.93-3.23,9.26,9.26,0,0,0,1.11-4.5,9.07,9.07,0,0,0-1.11-4.43,8.65,8.65,0,0,0-2.93-3.21,7.28,7.28,0,0,0-4-1.18,7.16,7.16,0,0,0-4,1.22,9,9,0,0,0-2.91,3.23A9.36,9.36,0,0,0,170.44,477.4Z"/><path class="cls-2" d="M204.63,487.42c-.22.08-.58.24-1.06.46a9.24,9.24,0,0,1-1.74.6,9.12,9.12,0,0,1-2.21.25,5.63,5.63,0,0,1-2.32-.47,3.77,3.77,0,0,1-1.72-1.43,4.15,4.15,0,0,1-.64-2.37V468.54h-3.06v-2.3h3.06v-7.49h2.89v7.49h5.1v2.3h-5.1v15.12a2.37,2.37,0,0,0,.87,1.8,2.89,2.89,0,0,0,1.81.59,5.66,5.66,0,0,0,2.17-.4,7.4,7.4,0,0,0,1.19-.57Z"/><path class="cls-2" d="M208.25,461.52v-4.25h2.89v4.25Zm0,26.79V466.15h2.89v22.16Z"/><path class="cls-2" d="M218.58,468.45h-3.06v-2.3h3.06v-.59a10.66,10.66,0,0,1,.47-3.11,8.92,8.92,0,0,1,1.42-2.8,7.09,7.09,0,0,1,2.43-2,7.44,7.44,0,0,1,3.5-.77,10.66,10.66,0,0,1,2.83.34,12,12,0,0,1,2.19.81,7.59,7.59,0,0,1,1.41.85l-1.32,2.08a5.66,5.66,0,0,0-2-1.08,9.16,9.16,0,0,0-2.92-.45,4.47,4.47,0,0,0-2.91.92,5.45,5.45,0,0,0-1.66,2.31,8.12,8.12,0,0,0-.53,2.85v.68h11.1v22.16h-2.89V468.45h-8.21v19.86h-2.89Z"/><path class="cls-2" d="M248.56,488.73a10.74,10.74,0,0,1-4.44-.9,11,11,0,0,1-3.53-2.52,11.7,11.7,0,0,1-3.17-8.08,11.83,11.83,0,0,1,1.4-5.71,10.77,10.77,0,0,1,3.91-4.1,11,11,0,0,1,5.79-1.52,10.46,10.46,0,0,1,5.48,1.42,8.79,8.79,0,0,1,3.53,3.85l-2.8.89a6.74,6.74,0,0,0-2.62-2.65,7.36,7.36,0,0,0-3.72-1,7.47,7.47,0,0,0-4,1.14,8.25,8.25,0,0,0-2.91,3.12,9.84,9.84,0,0,0,0,9,8.79,8.79,0,0,0,2.93,3.23,7.22,7.22,0,0,0,4,1.2,7.93,7.93,0,0,0,5.13-1.89,4.44,4.44,0,0,0,1.34-1.89l2.84.85a7.24,7.24,0,0,1-2,2.83,10.22,10.22,0,0,1-3.23,1.95A11.11,11.11,0,0,1,248.56,488.73Z"/><path class="cls-2" d="M260.51,482a5.53,5.53,0,0,1,1.19-3.57,7.63,7.63,0,0,1,3.29-2.32,13.32,13.32,0,0,1,4.87-.83,23.2,23.2,0,0,1,3.36.26,15.07,15.07,0,0,1,3.11.76v-1.86a6,6,0,0,0-1.66-4.44,6.24,6.24,0,0,0-4.59-1.65,9.75,9.75,0,0,0-3.51.66,17.79,17.79,0,0,0-3.6,1.94l-1.1-2a18.41,18.41,0,0,1,4.25-2.24,12.72,12.72,0,0,1,4.25-.74,8.86,8.86,0,0,1,6.47,2.32,8.6,8.6,0,0,1,2.38,6.43v10.18a1.27,1.27,0,0,0,.25.87,1.21,1.21,0,0,0,.81.31v2.3l-.81.08a1.43,1.43,0,0,1-.51,0,2.08,2.08,0,0,1-1.61-.68,2.26,2.26,0,0,1-.6-1.36l0-1.61a9.72,9.72,0,0,1-3.87,2.95,11.89,11.89,0,0,1-4.85,1,8.19,8.19,0,0,1-3.85-.9,6.93,6.93,0,0,1-2.68-2.46A6.36,6.36,0,0,1,260.51,482Zm14.84,1.69a6.24,6.24,0,0,0,.72-1.14,2.39,2.39,0,0,0,.26-1v-3.2a18,18,0,0,0-3-.85,17.36,17.36,0,0,0-3.13-.29,9.2,9.2,0,0,0-5,1.22,3.78,3.78,0,0,0-1.92,3.33,4.39,4.39,0,0,0,.64,2.3,5.07,5.07,0,0,0,1.87,1.77,5.83,5.83,0,0,0,2.89.69,9.37,9.37,0,0,0,3.89-.8A7,7,0,0,0,275.35,483.66Z"/><path class="cls-2" d="M295.85,487.42c-.23.08-.59.24-1.07.46a9.24,9.24,0,0,1-1.74.6,9.12,9.12,0,0,1-2.21.25,5.66,5.66,0,0,1-2.32-.47,3.83,3.83,0,0,1-1.72-1.43,4.15,4.15,0,0,1-.64-2.37V468.54h-3.06v-2.3h3.06v-7.49H289v7.49h5.1v2.3H289v15.12a2.37,2.37,0,0,0,.87,1.8,2.91,2.91,0,0,0,1.81.59,5.63,5.63,0,0,0,2.17-.4,7,7,0,0,0,1.19-.57Z"/><path class="cls-2" d="M299.46,461.52v-4.25h2.89v4.25Zm0,26.79V466.15h2.89v22.16Z"/><path class="cls-2" d="M318.21,488.73a10.81,10.81,0,0,1-4.44-.9,10.68,10.68,0,0,1-3.49-2.5,11.34,11.34,0,0,1-2.27-3.64,11.65,11.65,0,0,1-.81-4.33,11.93,11.93,0,0,1,.81-4.42,11.22,11.22,0,0,1,2.29-3.64,11,11,0,0,1,3.51-2.49,10.54,10.54,0,0,1,4.4-.91,10.38,10.38,0,0,1,4.38.91,11,11,0,0,1,3.49,2.49,11.42,11.42,0,0,1,2.3,3.64,12.13,12.13,0,0,1,.8,4.42,11.85,11.85,0,0,1-.8,4.33,11.54,11.54,0,0,1-2.28,3.64,10.54,10.54,0,0,1-7.89,3.4Zm-8.08-11.33a9.11,9.11,0,0,0,1.09,4.45,8.33,8.33,0,0,0,2.91,3.17,7.56,7.56,0,0,0,8.08,0,8.56,8.56,0,0,0,2.93-3.23,9.26,9.26,0,0,0,1.11-4.5,9.07,9.07,0,0,0-1.11-4.43,8.65,8.65,0,0,0-2.93-3.21,7.28,7.28,0,0,0-4-1.18,7.16,7.16,0,0,0-4,1.22,9,9,0,0,0-2.91,3.23A9.25,9.25,0,0,0,310.13,477.4Z"/><path class="cls-2" d="M352.66,488.31h-2.9V476q0-3.88-1.14-5.68a4,4,0,0,0-3.62-1.79,7.49,7.49,0,0,0-3.36.82,9.67,9.67,0,0,0-2.91,2.23,8.61,8.61,0,0,0-1.81,3.23v13.49H334V466.24h2.64v5a9.68,9.68,0,0,1,2.34-2.81,10.82,10.82,0,0,1,3.27-1.88,10.63,10.63,0,0,1,3.79-.68,6.45,6.45,0,0,1,3.1.68,5.23,5.23,0,0,1,2,1.92,9,9,0,0,1,1.11,3,21.17,21.17,0,0,1,.34,3.91Z"/><path class="cls-2" d="M366.09,488.73a14,14,0,0,1-5.06-.89,10.58,10.58,0,0,1-4-2.72l1.19-2a13.05,13.05,0,0,0,3.77,2.53,10.43,10.43,0,0,0,4,.78,7.7,7.7,0,0,0,4.21-1,3.33,3.33,0,0,0,1.61-3,2.57,2.57,0,0,0-.78-2,6.19,6.19,0,0,0-2.26-1.14c-1-.3-2.15-.61-3.51-.95A27.17,27.17,0,0,1,361.4,477a5.68,5.68,0,0,1-2.34-1.78,4.63,4.63,0,0,1-.79-2.81,5.75,5.75,0,0,1,1.08-3.58,6.79,6.79,0,0,1,3-2.15,11.59,11.59,0,0,1,4.23-.74,11.74,11.74,0,0,1,4.51.81,8.3,8.3,0,0,1,3.19,2.25l-1.4,2a7.42,7.42,0,0,0-2.83-2,9.67,9.67,0,0,0-3.64-.66,9.16,9.16,0,0,0-2.59.36,4.43,4.43,0,0,0-2,1.18A3.11,3.11,0,0,0,361,472a2.63,2.63,0,0,0,.6,1.84,4.45,4.45,0,0,0,1.78,1.1c.8.29,1.77.61,2.94.95,1.67.45,3.13.91,4.38,1.37a7.53,7.53,0,0,1,2.89,1.8,4.35,4.35,0,0,1,1,3.08,5.65,5.65,0,0,1-2.34,4.82A10.07,10.07,0,0,1,366.09,488.73Z"/><path class="cls-2" d="M390.33,495.11l1.15.07a2.47,2.47,0,0,0,.81-.07,1.72,1.72,0,0,0,1-.59,7.73,7.73,0,0,0,1.1-1.95c.43-1,1-2.37,1.79-4.24l-9.66-22.09h3.07l8.12,19.13,7.48-19.13h2.89l-11.48,28.5a4.92,4.92,0,0,1-.89,1.5,4.27,4.27,0,0,1-1.47,1.11,5.71,5.71,0,0,1-2.14.44,4.15,4.15,0,0,1-.79,0c-.27,0-.59-.05-1-.1Z"/><path class="cls-2" d="M421,488.73a10.77,10.77,0,0,1-7.95-3.41,11.81,11.81,0,0,1-2.32-3.66,12,12,0,0,1-.83-4.45,11.53,11.53,0,0,1,1.43-5.66,11.07,11.07,0,0,1,3.93-4.11,10.63,10.63,0,0,1,5.7-1.54,10.41,10.41,0,0,1,5.72,1.56,11.28,11.28,0,0,1,3.85,4.12,11.48,11.48,0,0,1,1.4,5.59v.66a2.13,2.13,0,0,1,0,.49h-19a9.59,9.59,0,0,0,1.34,4.21,8.44,8.44,0,0,0,2.94,2.91,7.5,7.5,0,0,0,3.93,1.08,8.19,8.19,0,0,0,4.1-1.1,6.1,6.1,0,0,0,2.7-2.89l2.51.68a8.36,8.36,0,0,1-2.08,2.84,10,10,0,0,1-3.3,2A11.51,11.51,0,0,1,421,488.73Zm-8.16-12.5H429.2a9,9,0,0,0-1.3-4.21,8.3,8.3,0,0,0-2.93-2.84,8,8,0,0,0-4-1,7.84,7.84,0,0,0-3.95,1,8.32,8.32,0,0,0-2.92,2.86A9.09,9.09,0,0,0,412.83,476.23Z"/><path class="cls-2" d="M446.76,487.42c-.23.08-.58.24-1.06.46a9.28,9.28,0,0,1-4,.85,5.62,5.62,0,0,1-2.31-.47,3.85,3.85,0,0,1-1.73-1.43,4.23,4.23,0,0,1-.63-2.37V468.54H434v-2.3h3.07v-7.49H440v7.49h5.1v2.3H440v15.12a2.34,2.34,0,0,0,.87,1.8,2.89,2.89,0,0,0,1.81.59,5.66,5.66,0,0,0,2.17-.4,7.4,7.4,0,0,0,1.19-.57Z"/></g><g class="cls-1"><path class="cls-2" d="M186.79,178S213.2,198.68,239.6,173"/><path class="cls-2" d="M325.21,179.65s-26.41,20.65-52.82-5.09"/><circle class="cls-2" cx="254.63" cy="235.46" r="11.15"/></g><text class="cls-3" transform="translate(330.09 130.99)">z</text><text class="cls-3" transform="translate(339.91 81.87)">z</text><text class="cls-4" transform="translate(366.71 72.43) scale(0.84 1)">z</text></g></svg>