<svg id="Layer_1" data-name="Layer 1" xmlns="http://www.w3.org/2000/svg" viewBox="0 0 512 512"><defs><style>.cls-1{opacity:0.25;}.cls-2{fill:#1a1a1a;}</style></defs><g id="no_Notification" data-name="no Notification" class="cls-1"><path class="cls-2" d="M255.09,401.86c-44.24,0-88.48-.31-132.72.12-24.49.23-39.5-14.69-44.83-34.91-2.18-8.25-1-16,1.24-23.86,3.58-12.47,9.86-23.41,19.59-32,8.45-7.46,14.6-16.44,19.51-26.41,8.93-18.16,13.63-37.54,16.37-57.47,2-14.44,2.25-29,3-43.52,1.79-35.27,15-65.27,42.59-88.17a107.43,107.43,0,0,1,31-17.58,4.49,4.49,0,0,0,2.93-3A44.59,44.59,0,0,1,261.16,46.4c18.32,2.42,31.06,12.1,37.68,29.57a4.74,4.74,0,0,0,2.51,2.19c18.32,7.69,34.41,18.56,47.52,33.58a100.17,100.17,0,0,1,24.84,56.76c.92,8.86.86,17.81,1.36,26.72,1.4,25.47,4.81,50.6,13.16,74.84,3.48,10.1,7.76,19.88,14.32,28.39a86.81,86.81,0,0,0,10.53,11.32c14.61,13.18,22.81,29.46,22.53,49.14-.29,20.38-12.7,40.89-41.05,42.68-2.24.15-4.49.16-6.74.16H255.09ZM119.18,385.49c.86-.06,1.73-.1,2.6-.1h1.33l265,0c1.5,0,3,0,4.49-.06,16.24-.71,27-12.32,26-28.25-.83-14.1-6.72-25.64-17.18-35.19a100,100,0,0,1-13.62-15.17c-9.77-13.55-15.54-29-19.91-45-7.27-26.64-10.15-53.85-10.42-81.41a87.18,87.18,0,0,0-10.54-41.67c-12.61-23-32.17-37.72-56.42-46.67-4.05-1.49-6.4-3.87-7.34-8.17C280.43,71.18,269.11,62.51,256,62.59s-24.37,8.85-27,21.48a10.09,10.09,0,0,1-6.87,7.46,92.66,92.66,0,0,0-29.24,15.06c-25,19.58-36.64,45.94-38.53,77.1-.78,12.87-.93,25.8-2.19,38.61-2.35,23.79-7.69,46.89-18.1,68.57-5.39,11.22-11.79,21.85-21.4,30a54.52,54.52,0,0,0-17.53,27.41c-1.3,4.61-2.47,9.22-1.19,14.12,2.07,8,5.33,15.14,12.77,19.59a25.71,25.71,0,0,0,12.51,3.49Z"/><path class="cls-2" d="M254.55,466c-19.74-.57-38.29-7.08-53.19-22.41a53,53,0,0,1-12.77-20.93,12.6,12.6,0,0,1-.29-5.92,7.17,7.17,0,0,1,6.48-5.68,7.55,7.55,0,0,1,7.58,4.55c.87,1.91,1.48,3.94,2.42,5.81,5.71,11.46,15,19,26.78,23.4,21.75,8.07,42.56,6.17,61.78-7.34a40.94,40.94,0,0,0,15.33-20.33c1.72-4.9,5.75-7.21,9.84-5.8,4.24,1.47,6.37,6.17,4.75,10.94-4.49,13.23-13,23.32-24.52,31C285.76,461.91,271.31,465.73,254.55,466Z"/></g></svg>