<svg id="Layer_1" data-name="Layer 1" xmlns="http://www.w3.org/2000/svg" viewBox="0 0 512 512"><defs><style>.cls-1{fill:#666;}</style></defs><path class="cls-1" d="M355,435.58c-16,0-34.64-4.22-55.25-12.68C258.65,406,213.09,373.82,171.5,332.23c-41.27-41.27-73.24-86.84-90-128.32-17.46-43.14-16.76-77.75,2-97.46l.14-.14,34.09-34.09c15.46-15.46,41.24-15.61,58.69-.34l.36.34L227,122.46A41.42,41.42,0,0,1,238,162a39.39,39.39,0,0,1-26.6,28.5,26.85,26.85,0,0,0-14.59,12.24,21.84,21.84,0,0,0-2.12,17.72l.18.64c8.09,34,53.16,79,87.73,87.74,12.89,2.81,26.58-4.59,30.61-16.54a39.38,39.38,0,0,1,28.5-26.58,41.41,41.41,0,0,1,39.57,11L431.5,327c15.46,15.46,15.61,41.24.35,58.69l-.35.36-34.09,34.09C387.13,430.42,372.69,435.58,355,435.58ZM94.26,116.84c-14.16,15-13.75,44.67,1.13,81.45,16,39.65,46.84,83.45,86.71,123.33,40.23,40.22,84,71.26,123.37,87.4,37.42,15.36,66.31,15.54,81.34.52l33.9-33.91c9.77-11.33,9.87-28.34.19-38h0l-50.24-50.24a26.54,26.54,0,0,0-25.34-7.08,24.53,24.53,0,0,0-17.81,16.54l-.05.17c-6.48,19.42-27.65,31.05-48.22,26.48l-.19-.05c-18.63-4.65-40.56-18.44-60.2-37.82C199,266,185,243.88,180.34,224.9c-3.1-9.63-1.91-20.09,3.38-29.5a42,42,0,0,1,23-19.13l.17-.06a24.5,24.5,0,0,0,16.54-17.8,26.52,26.52,0,0,0-7.08-25.35l-50-50c-11.34-9.76-28.34-9.87-38-.19Z"/></svg>