<svg id="Layer_1" data-name="Layer 1" xmlns="http://www.w3.org/2000/svg" viewBox="0 0 512 512"><defs><style>.cls-1{fill:#666;}</style></defs><path class="cls-1" d="M404.16,227.49H289.24A11.51,11.51,0,0,1,277.72,216V101.05A11.52,11.52,0,0,0,266.2,89.53H245.8a11.52,11.52,0,0,0-11.52,11.52V216a11.51,11.51,0,0,1-11.52,11.51H107.84A11.52,11.52,0,0,0,96.32,239v20.4a11.52,11.52,0,0,0,11.52,11.52H222.76a11.52,11.52,0,0,1,11.52,11.52V397.37a11.52,11.52,0,0,0,11.52,11.52h20.4a11.52,11.52,0,0,0,11.52-11.52V282.45a11.52,11.52,0,0,1,11.52-11.52H404.16a11.52,11.52,0,0,0,11.52-11.52V239A11.52,11.52,0,0,0,404.16,227.49Z"/></svg>