<svg id="Layer_1" data-name="Layer 1" xmlns="http://www.w3.org/2000/svg" viewBox="0 0 512 512"><defs><style>.cls-1{fill:#666;}</style></defs><path id="Price" class="cls-1" d="M221.3,459.59V415.12l-1.78-.38c-4.77-1-9.53-2-14.13-2.89-10.73-2.13-20.79-4.13-30.67-7.05-9.32-2.77-18.46-7.06-27.29-11.21l-.51-.24c-1.77-.84-3.53-1.67-5.3-2.48l-.57-.26-.32-.54a11.39,11.39,0,0,1-.92-2.09l-.13-.49.12-.5c4.79-19.6,9.72-38.79,14.95-59.11l3.34-13,11.46,6.05c24.45,12.88,47.61,19.14,70.8,19.14,3.85,0,7.75-.18,11.58-.52a52.46,52.46,0,0,0,19.59-6.1A14.61,14.61,0,0,0,274.76,309a69.15,69.15,0,0,0-19.39-12.7c-7.93-3.45-16.12-6.59-24-9.63-8.66-3.32-17.59-6.75-26.17-10.59-23.48-10.49-39.24-23.16-49.6-39.9-24.69-39.85-11.82-93.41,28.7-119.39,8.8-5.65,19-9.63,28.8-13.48l3.69-1.45c5.14-2,7-4.71,6.92-9.88-.17-9.6-.14-19-.11-29l0-10.11,1.76-.21a11.69,11.69,0,0,1,1.47-.1l31.54,0c7.41,0,17.16,0,26.91-.16h0a9.35,9.35,0,0,1,2.92.32l2.21.75-.83,1.58a16.45,16.45,0,0,1,0,1.73c-.21,8.36-.17,16.48-.13,25.07,0,2.61,0,9.27,0,12.41l1.89.32c2.82.47,5.62.86,8.33,1.23a116.44,116.44,0,0,1,17.22,3.24c9.89,2.92,19.79,6.49,29.36,10,3.76,1.36,7.52,2.72,11.29,4a7.8,7.8,0,0,1,2,.94L361,115l-.74,1.3c0,.17-.08.35-.14.57-4.95,18.23-9.94,37-14.35,53.52l-4.46,16.75-2.37-1.09c-3.36-1.57-6.53-3.05-9.7-4.62-19.76-9.79-40-14.75-60.25-14.75-3.56,0-7.16.15-10.71.45a39.9,39.9,0,0,0-15.19,4.45c-4.7,2.53-7.63,6.71-7.81,11.17-.18,4.26,2.1,8.26,6.26,11,10,6.51,21,11.81,30.49,16.14,6.56,3,13.29,5.72,19.79,8.34,10.55,4.25,21.47,8.65,31.46,14.21,24.42,13.56,41.06,35.36,46.87,61.38,5.74,25.79.07,52.24-16,74.5-13.1,18.17-31.58,30.5-56.5,37.69-8.14,2.35-11,6.27-10.63,14.47.46,9.6.36,19,.26,28.95,0,2.71,0,5.43-.06,8.17v2Zm46.52-19.2v-47l1.63-.31c13.78-2.61,31.72-6.88,48.16-16.87,21.84-13.25,35-37,35.1-63.48.13-24.5-11.38-46.31-30.77-58.36-9.92-6.16-20.74-11.09-31.2-15.87-2.77-1.26-5.51-2.51-8.23-3.78-6.39-3-13-5.87-18.91-8.43l-.22-.09c-8.93-3.89-18.17-7.92-27-12.35-9.2-4.62-15.43-11.34-18.53-19.95A30.74,30.74,0,0,1,219.61,169c4.77-9.11,13.93-16.06,25.12-19A90.26,90.26,0,0,1,268,147.07a125.27,125.27,0,0,1,22.13,2.1c8.41,1.5,16.55,3.58,25.17,5.78l.67.17c3.58.92,7.28,1.86,11,2.75l2.15.52,8.64-32.85-1.82-.76c-21.73-9.1-44.34-10.66-63.82-11.42l-1.92-.08V72.2h-27.1c0,3.49,0,10.59,0,13.26v.28c0,8.74-.09,17,.14,25.34.11,3.78-.58,4.62-4.37,5.29-16.26,2.87-30.34,8-43.05,15.7-19.55,11.85-32.25,33.77-33.12,57.21A64.38,64.38,0,0,0,190,245c15.88,11.33,33.9,18.35,51.33,25.14l1.44.56c11.51,4.49,24.87,10,36.78,17.22,10.38,6.26,22.08,18,18.84,38.27-2.25,14-11.22,23.53-27.42,29a88.85,88.85,0,0,1-29.1,4.6,145.18,145.18,0,0,1-30.72-3.67c-8.77-1.89-17.23-4.49-26.18-7.25l-.42-.13c-3.88-1.19-7.89-2.42-11.91-3.58l-2.24-.65-.58,2.26c-.63,2.45-1.25,4.93-1.86,7.42-1.46,5.9-3,12-4.77,18-.58,1.88-1.19,4.65.07,6.93.91,1.64,2.63,2.78,5.25,3.49,3.78,1,7.58,2.16,11.25,3.26l.11,0a208.71,208.71,0,0,0,22.53,5.86c9.1,1.65,18.12,2.46,27.67,3.31h.1l8.63.79,1.8.18v44.36Z"/></svg>