<svg id="Layer_1" data-name="Layer 1" xmlns="http://www.w3.org/2000/svg" viewBox="0 0 512 512"><defs><style>.cls-1{fill:#666;}</style></defs><path id="PROFILE" class="cls-1" d="M260.77,466.16c-1.64,0-3.16,0-4.67-.09h-.2c-1.5.06-3,.09-4.67.09-21.71,0-97.55-5.41-161.9-75.06l-2.23-2.42-.26-3.29c-.27-3.42-5.83-84,56.54-109.32l.13-.06,36.71-17.43L177.29,256a119.44,119.44,0,1,1,156.9-.24l-2.92,2.55L368.55,276l.07,0c62.3,25.31,56.81,105.91,56.55,109.32l-.26,3.29-2.24,2.41C358.32,460.75,282.48,466.16,260.77,466.16Zm-110-172.58c-42.42,17.08-45.24,70.25-45.1,86.15v1l.7.73c58.49,60.93,126.42,65.66,145.85,65.66,1.38,0,2.47,0,3.24-.05l.74,0,.4,0c.76,0,1.84.05,3.21.05,19.44,0,87.4-4.73,145.88-65.66l.7-.73v-1c.15-15.9-2.68-69.13-45.16-86.18l-.61-.27-42.32-20.09-2.4-4.14-2.19,1.22a119.12,119.12,0,0,1-115.59.34l-2.19-1.21-2.19,3.79ZM255.6,65.52A100.45,100.45,0,1,0,356.05,166,100.56,100.56,0,0,0,255.6,65.52Z"/></svg>