<svg id="Layer_1" data-name="Layer 1" xmlns="http://www.w3.org/2000/svg" viewBox="0 0 512 512"><defs><style>.cls-1{fill:#666;}</style></defs><g id="Sales_Person" data-name="Sales Person"><path class="cls-1" d="M376.21,350.88a4.88,4.88,0,0,0-2,4.21,4.27,4.27,0,0,0,1.28,3.26,10.35,10.35,0,0,0,3.85,2l1.38.44V349.5A8.87,8.87,0,0,0,376.21,350.88Z"/><path class="cls-1" d="M404.83,304.47a80.87,80.87,0,0,0-36.21-28.75l-.07,0L331.27,258l2.92-2.56a119.43,119.43,0,1,0-156.9.24l2.93,2.55-36.71,17.44-.13.05C81,301.06,86.57,381.63,86.84,385l.26,3.29,2.23,2.42c64.35,69.65,140.19,75.06,161.9,75.06,1.64,0,3.17,0,4.67-.08h.2c1.51.06,3,.08,4.67.08,15.56,0,58.89-2.78,105.88-30a68.51,68.51,0,0,0,38.18-131.38ZM155.15,165.62A100.45,100.45,0,1,1,255.6,266.07,100.56,100.56,0,0,1,155.15,165.62ZM259.78,446.78c-1.37,0-2.45,0-3.21,0l-.4,0-.74,0c-.77,0-1.86.06-3.24.06-19.43,0-87.36-4.74-145.85-65.67l-.7-.73v-1c-.14-15.89,2.68-69.07,45.1-86.15l43-20.39,2.19-3.79,2.19,1.21a119.12,119.12,0,0,0,115.59-.34l2.19-1.22,2.4,4.14,42.32,20.09.61.27a61.29,61.29,0,0,1,13.86,7.74,68.52,68.52,0,0,0-30.86,125.25C306.11,444.75,272.52,446.78,259.78,446.78ZM400.3,384a12.78,12.78,0,0,1-4.1,4.63,17.88,17.88,0,0,1-6,2.62,29.89,29.89,0,0,1-5.41.77v7.75h-4.74v-7.85A38.77,38.77,0,0,1,368.43,389a33.39,33.39,0,0,1-6.33-3.51l4.31-8.42a14.41,14.41,0,0,0,2.26,1.67,32.08,32.08,0,0,0,3.93,2.05,31.4,31.4,0,0,0,5.1,1.73,23.94,23.94,0,0,0,3,.55V370.88c-.75-.22-1.52-.43-2.33-.65a41,41,0,0,1-8-3,11.65,11.65,0,0,1-4.74-4.21,12,12,0,0,1-1.52-6.33,14.8,14.8,0,0,1,2.44-8.67,15.13,15.13,0,0,1,6.65-5.3,22.24,22.24,0,0,1,6.83-1.7V333.8h4.74V341a27.8,27.8,0,0,1,4.35.68,33.09,33.09,0,0,1,5.9,2.05,35.55,35.55,0,0,1,5,2.76l-4.32,7.92a8.12,8.12,0,0,0-1.77-1.3,33.78,33.78,0,0,0-3.18-1.67,24.26,24.26,0,0,0-4.07-1.41,17.91,17.91,0,0,0-2.58-.46v12.29l1.48.41a43.41,43.41,0,0,1,8.71,2.93,14,14,0,0,1,5.55,4.53,12.83,12.83,0,0,1,1.94,7.47A14.45,14.45,0,0,1,400.3,384Z"/><path class="cls-1" d="M385.23,372.25l-1.13-.36v11.34a10.4,10.4,0,0,0,5.23-1.29,4.28,4.28,0,0,0,2.05-3.86,4.36,4.36,0,0,0-1.62-3.57A14.47,14.47,0,0,0,385.23,372.25Z"/></g></svg>