<svg id="Layer_1" data-name="Layer 1" xmlns="http://www.w3.org/2000/svg" viewBox="0 0 512 512"><defs><style>.cls-1{fill:#666;}</style></defs><path class="cls-1" d="M324.38,328.54h0a19.3,19.3,0,0,0-8.31-15.87l-5.52-3.83a4.58,4.58,0,0,0-5.61.3h0a141.69,141.69,0,0,1-92.29,34.26c-78.58,0-142.44-64.23-141.84-142.95C71.4,123.3,134.39,60.32,211.54,59.72c78.72-.6,143,63.26,143,141.84a141.67,141.67,0,0,1-34.26,92.29l0,0a4.58,4.58,0,0,0-.28,5.61l3.83,5.52a19.32,19.32,0,0,0,15.86,8.29h0A19.31,19.31,0,0,1,353.3,319L443.17,409a16.32,16.32,0,0,1,0,23.06h0a16.32,16.32,0,0,1-23.06,0l-90.05-89.87A19.31,19.31,0,0,1,324.38,328.54ZM216.62,81.93A119.82,119.82,0,0,0,93,205.53c2,62.71,52.94,113.61,115.66,115.65A119.81,119.81,0,0,0,332.27,197.59C330.23,134.87,279.33,84,216.62,81.93Z"/></svg>