<svg id="Layer_1" data-name="Layer 1" xmlns="http://www.w3.org/2000/svg" viewBox="0 0 512 512"><defs><style>.cls-1{fill:#666;}</style></defs><g id="Setting"><path class="cls-1" d="M256,332.66A76.66,76.66,0,1,1,332.66,256,76.75,76.75,0,0,1,256,332.66Zm0-138.32A61.66,61.66,0,1,0,317.66,256,61.73,61.73,0,0,0,256,194.34Z"/><path class="cls-1" d="M445.08,231.19h0a12,12,0,0,0-9.77-10.47l-42.18-7.42a145.16,145.16,0,0,0-5.22-15.1,143.32,143.32,0,0,0-6.85-14.41l24.64-35.46a12.17,12.17,0,0,0-.39-14.4h0a190.85,190.85,0,0,0-31.2-31.61h0a11.78,11.78,0,0,0-14.21-.4l-35,25a141.74,141.74,0,0,0-29.11-12.21l-7.55-43.94a10.34,10.34,0,0,0-8.92-8.56h0a197.7,197.7,0,0,0-46.51,0h0a10.36,10.36,0,0,0-8.95,8.58l-7.54,43.9a139.82,139.82,0,0,0-29.13,12.22l-35-24.95a11.78,11.78,0,0,0-14.23.4h0a190.87,190.87,0,0,0-31.21,31.61h0a12.17,12.17,0,0,0-.39,14.4L131,183.81a146.07,146.07,0,0,0-12,29.48l-42.22,7.44a12,12,0,0,0-9.76,10.44h0a194.35,194.35,0,0,0,0,44.71v0a12,12,0,0,0,9.76,10.44l42.2,7.43a145.12,145.12,0,0,0,5.21,15.1,147.82,147.82,0,0,0,6.85,14.41l-24.63,35.46a12.16,12.16,0,0,0,.39,14.4h0a190.14,190.14,0,0,0,31.21,31.61h0a11.78,11.78,0,0,0,14.22.39l35-25a141.74,141.74,0,0,0,29.11,12.21l7.34,42.74a12,12,0,0,0,10.34,9.9h0a186.4,186.4,0,0,0,44.12,0h0a12,12,0,0,0,10.33-9.9l7.33-42.72a139.22,139.22,0,0,0,29.13-12.22l35,24.95a11.77,11.77,0,0,0,14.22-.4h0a190.8,190.8,0,0,0,31.21-31.6h0a12.19,12.19,0,0,0,.39-14.41l-24.65-35.47a146.07,146.07,0,0,0,12.05-29.48l42.21-7.43a12,12,0,0,0,9.77-10.47h0A194.17,194.17,0,0,0,445.08,231.19ZM271.47,373.05C193.64,383,128.19,316.7,138,237.87c6.68-53.7,49.5-97.08,102.53-103.85C318.36,124.09,383.81,190.37,374,269.2,367.33,322.9,324.5,366.28,271.47,373.05Z"/></g></svg>