<svg id="Layer_1" data-name="Layer 1" xmlns="http://www.w3.org/2000/svg" viewBox="0 0 512 512"><defs><style>.cls-1{fill:#666;}</style></defs><path class="cls-1" d="M253.88,439.19q-44.82,0-89.64-.05c-25.53,0-41.41-12.23-48.54-37.31-14.7-51.71-29.14-102.33-44.12-153C68,236.65,59.91,227.45,53.76,221.86c-7.29-6.61-7.06-9.94-5.95-13.91,1.74-6.2,4.42-8.44,11-9.21A113.79,113.79,0,0,1,72.06,198c3.44,0,7.12.13,11,.38,1.17.08,2.34.12,3.47.12,16.58,0,30-8.24,38.68-23.82,20.23-36.15,40.49-71.66,60.2-105.55,3.22-5.54,7-8.34,11.37-8.34a13.69,13.69,0,0,1,4.53.84,11.08,11.08,0,0,1,6.89,6.56c1.41,3.64,1,7.67-1.11,11.64-7.65,14.23-16,28.64-24,42.57-4,7-8.17,14.12-12.32,21.42-1.71,3-3.21,5.93-4.79,9l-.15.29c-.69,1.36-1.44,2.82-2.27,4.41l-20.81,39.87H372l-23.31-40.79c-4.07-7.12-8.15-14.17-12.1-21l-.18-.33c-10.09-17.41-19.6-33.83-28.47-50.6-2.75-5.2-4.47-10.87-4.49-14.79s4.2-7.53,8.15-8.47a17.56,17.56,0,0,1,4-.49c2.89,0,6.67.79,10.32,7q4.77,8.1,9.57,16.18L336,85c14.9,25.13,30.28,51.07,43.39,77.07,12.39,24.58,30.73,37,54.52,37a77.28,77.28,0,0,0,12-1,7.19,7.19,0,0,1,1-.05,48.9,48.9,0,0,1,7.17.83c6.15,1.06,8.41,3.08,10.1,9,1,3.67,1.29,7-5.66,14-6.47,6.49-14.93,16.95-18.5,29.95-11.13,40.5-21.89,81.59-32.3,121.33l-7.22,27.52c-7.08,26.95-21.82,38.46-49.31,38.48Q302.55,439.2,253.88,439.19Zm-147.1-157c10.16,35.18,20.67,71.57,31.43,107.53,4.66,15.56,21.21,24.95,34.53,25,28.24.17,57.15.25,85.93.25,27.92,0,56.25-.08,84.22-.23,13.64-.08,30.37-9.56,34.74-25.28,9.89-35.6,19.24-70.58,29.14-107.62l15.69-58.63H89.73Z"/></svg>