<svg id="Layer_1" data-name="Layer 1" xmlns="http://www.w3.org/2000/svg" viewBox="0 0 512 512"><defs><style>.cls-1{fill:#666;}</style></defs><g id="No_Card" data-name="No Card"><path class="cls-1" d="M390.48,394.36,356.06,149a37.49,37.49,0,0,0-37-32.14h-16.3V90.7a29.66,29.66,0,0,0-29.62-29.62H238.48A29.65,29.65,0,0,0,208.87,90.7v26.18H192a37.46,37.46,0,0,0-37,32.27L121.5,394.49a37.34,37.34,0,0,0,37,42.39h195a37.34,37.34,0,0,0,37-42.52ZM222.66,90.7a15.83,15.83,0,0,1,15.82-15.82h34.69A15.84,15.84,0,0,1,289,90.7v26.18H222.66Zm-30.64,40H319.09a23.65,23.65,0,0,1,23.31,20.27l2.06,14.68H166.71l2-14.6A23.64,23.64,0,0,1,192,130.67Zm-27.2,48.74H346.4l27.09,193.15H138.42ZM371.27,415a23.52,23.52,0,0,1-17.76,8.09h-195a23.53,23.53,0,0,1-23.32-26.72l1.37-10H375.43l1.39,9.93A23.48,23.48,0,0,1,371.27,415Z"/></g></svg>