<svg id="Layer_1" data-name="Layer 1" xmlns="http://www.w3.org/2000/svg" viewBox="0 0 512 512"><defs><style>.cls-1{fill:#666;}.cls-2{opacity:0.25;}.cls-3{fill:#1a1a1a;}</style></defs><path class="cls-1" d="M201.76,353H310.24a4.9,4.9,0,0,0,0-9.8H201.76a4.9,4.9,0,1,0,0,9.8Z"/><circle class="cls-1" cx="218.53" cy="267.82" r="16.61"/><circle class="cls-1" cx="295.72" cy="267.82" r="16.61"/><path class="cls-1" d="M254,416q-42,0-83.9-.05c-24.41,0-39.59-11.69-46.4-35.64C110,331.9,96.46,284.54,82.43,237.06c-3.3-11.16-10.74-19.63-16.4-24.77-7.23-6.56-7-10.1-5.85-14,1.74-6.22,4.56-8.57,11.16-9.34a108.35,108.35,0,0,1,12.5-.68c3.24,0,6.71.12,10.31.36,1.07.07,2.15.1,3.18.1,15.13,0,27.35-7.53,35.33-21.78,18.93-33.81,37.89-67,56.36-98.81,3.21-5.51,7.08-8.3,11.51-8.3a13.91,13.91,0,0,1,4.57.84,11.36,11.36,0,0,1,7.05,6.72,13.78,13.78,0,0,1-1.09,11.74c-7.18,13.33-15,26.82-22.52,39.87l-.06.1c-3.74,6.47-7.61,13.15-11.47,19.94-1.59,2.8-3,5.52-4.46,8.41l-.14.26c-.65,1.28-1.35,2.65-2.13,4.14l-18.71,35.86H362.88l-21-36.69c-3.81-6.66-7.63-13.26-11.32-19.63l-.18-.31c-9.43-16.27-18.33-31.65-26.66-47.39-2.64-5-4.3-10.49-4.32-14.31,0-4.27,4.35-8,8.4-8.9a17.23,17.23,0,0,1,4-.5c3,0,6.84.8,10.52,7q4.35,7.4,8.73,14.77l.7,1.18c13.95,23.54,28.36,47.84,40.64,72.2,11.42,22.64,28.29,34.12,50.14,34.12a70.09,70.09,0,0,0,11.12-.93,8,8,0,0,1,1.08-.06,48,48,0,0,1,6.89.79c6.16,1.07,8.55,3.2,10.24,9.11,1,3.62,1.33,7.18-5.55,14.08-6,6-13.77,15.64-17.06,27.6C418.86,277.65,408.81,316,399.1,353.08l-6.84,26.09c-6.77,25.75-20.86,36.74-47.12,36.76Q299.57,416,254,416ZM117.34,267.89c9.5,32.88,19.32,66.87,29.37,100.46,4.22,14.12,19.27,22.64,31.36,22.72,26.54.15,53.59.23,80.43.23,26.19,0,52.71-.07,78.82-.22,12.4-.07,27.6-8.67,31.56-22.92,9.25-33.29,18-66,27.25-100.63l14.37-53.72H101.7Z"/><g class="cls-2"><path class="cls-3" d="M81,429.62l9.87,16.25,10-16.25H104l-11.69,19v11.23h-3V448.5L77.7,429.62Z"/><path class="cls-3" d="M113.42,460.24a10.64,10.64,0,0,1-7.93-3.4,11.54,11.54,0,0,1-2.28-3.64,11.89,11.89,0,0,1-.8-4.33,12.09,12.09,0,0,1,.8-4.42,11.42,11.42,0,0,1,2.3-3.64,10.87,10.87,0,0,1,3.51-2.5,10.65,10.65,0,0,1,4.4-.9,10.53,10.53,0,0,1,4.38.9,11.11,11.11,0,0,1,3.49,2.5,11.39,11.39,0,0,1,2.29,3.64,11.89,11.89,0,0,1,.81,4.42,11.69,11.69,0,0,1-.81,4.33,11.52,11.52,0,0,1-2.27,3.64,10.65,10.65,0,0,1-3.49,2.49A10.54,10.54,0,0,1,113.42,460.24Zm-8.08-11.33a9.24,9.24,0,0,0,1.08,4.45,8.51,8.51,0,0,0,2.92,3.17,7.56,7.56,0,0,0,8.08,0,8.72,8.72,0,0,0,2.93-3.23,9.32,9.32,0,0,0,1.11-4.5,9.07,9.07,0,0,0-1.11-4.43,8.74,8.74,0,0,0-2.93-3.21,7.28,7.28,0,0,0-4-1.18,7.14,7.14,0,0,0-4,1.22,9,9,0,0,0-2.92,3.23A9.35,9.35,0,0,0,105.34,448.91Z"/><path class="cls-3" d="M129,450.71v-13h2.9v12.44a10,10,0,0,0,1.29,5.64,4.4,4.4,0,0,0,3.85,1.86,7.82,7.82,0,0,0,3.3-.74,8.59,8.59,0,0,0,2.82-2.12,9.29,9.29,0,0,0,1.88-3.19V437.75H148v18.58a1.24,1.24,0,0,0,.25.87,1.17,1.17,0,0,0,.77.32v2.3l-.81.06-.55,0a2.4,2.4,0,0,1-1.47-.68,2.07,2.07,0,0,1-.66-1.44l-.08-3a10.68,10.68,0,0,1-9.32,5.42,6.14,6.14,0,0,1-5.27-2.41C129.62,456.22,129,453.84,129,450.71Z"/><path class="cls-3" d="M165.55,440.21a9.16,9.16,0,0,0-5.08,1.62,8.06,8.06,0,0,0-3.08,4.21v13.78H154.5V437.75h2.72V443a10.5,10.5,0,0,1,3-3.79,7.52,7.52,0,0,1,4-1.61,7.24,7.24,0,0,1,.74-.05,2.58,2.58,0,0,1,.53.05Z"/><path class="cls-3" d="M178,444.46a15.84,15.84,0,0,1,1-5.42,16.12,16.12,0,0,1,2.79-4.85,13.25,13.25,0,0,1,4.5-3.48,13.71,13.71,0,0,1,6.08-1.3,12.48,12.48,0,0,1,6.91,1.85,11.19,11.19,0,0,1,4.23,4.74l-2.33,1.45a9.09,9.09,0,0,0-2.47-3.17,9.62,9.62,0,0,0-3.17-1.68,11.43,11.43,0,0,0-3.34-.51,10.29,10.29,0,0,0-4.8,1.08,10.75,10.75,0,0,0-3.51,2.9,12.77,12.77,0,0,0-2.15,4,14.58,14.58,0,0,0-.72,4.52,13.65,13.65,0,0,0,.85,4.81,13.17,13.17,0,0,0,2.38,4.06,11.78,11.78,0,0,0,3.59,2.81,9.88,9.88,0,0,0,4.49,1,11,11,0,0,0,3.49-.6,10.64,10.64,0,0,0,3.34-1.83,8.88,8.88,0,0,0,2.48-3.18l2.47,1.27a9.58,9.58,0,0,1-2.89,3.83,14.13,14.13,0,0,1-4.36,2.38,14.66,14.66,0,0,1-4.7.81,12.28,12.28,0,0,1-5.7-1.34,14.64,14.64,0,0,1-4.48-3.57A16.67,16.67,0,0,1,178,444.46Z"/><path class="cls-3" d="M219.64,440.21a9.16,9.16,0,0,0-5.08,1.62,8.06,8.06,0,0,0-3.08,4.21v13.78h-2.89V437.75h2.72V443a10.5,10.5,0,0,1,3-3.79,7.52,7.52,0,0,1,4-1.61,7.24,7.24,0,0,1,.74-.05,2.58,2.58,0,0,1,.53.05Z"/><path class="cls-3" d="M221.47,453.48a5.59,5.59,0,0,1,1.19-3.57,7.68,7.68,0,0,1,3.3-2.33,13.46,13.46,0,0,1,4.87-.82,23.42,23.42,0,0,1,3.36.26,15.13,15.13,0,0,1,3.1.76v-1.86a6,6,0,0,0-1.66-4.44,6.2,6.2,0,0,0-4.59-1.65,9.75,9.75,0,0,0-3.51.66,17.4,17.4,0,0,0-3.59,1.93l-1.11-2a18.8,18.8,0,0,1,4.26-2.23,12.39,12.39,0,0,1,4.25-.74,8.85,8.85,0,0,1,6.46,2.32,8.55,8.55,0,0,1,2.38,6.42v10.19a1.23,1.23,0,0,0,.26.86,1.17,1.17,0,0,0,.81.32v2.3c-.32,0-.59.05-.81.08a1.41,1.41,0,0,1-.51,0,2.14,2.14,0,0,1-1.62-.68,2.21,2.21,0,0,1-.59-1.36l-.05-1.62a9.74,9.74,0,0,1-3.87,3,12,12,0,0,1-4.84,1,8.07,8.07,0,0,1-3.85-.91,6.77,6.77,0,0,1-2.68-2.45A6.31,6.31,0,0,1,221.47,453.48Zm14.84,1.68A6.49,6.49,0,0,0,237,454a2.36,2.36,0,0,0,.25-1v-3.21a18.45,18.45,0,0,0-3-.84,17.17,17.17,0,0,0-3.12-.29,9.17,9.17,0,0,0-5,1.22,3.75,3.75,0,0,0-1.91,3.33,4.44,4.44,0,0,0,.63,2.29,4.92,4.92,0,0,0,1.87,1.77,5.77,5.77,0,0,0,2.9.7,9.6,9.6,0,0,0,3.89-.8A6.93,6.93,0,0,0,236.31,455.16Z"/><path class="cls-3" d="M256.81,458.92c-.23.09-.58.24-1.06.47a9.62,9.62,0,0,1-1.75.6,9.12,9.12,0,0,1-2.21.25,5.87,5.87,0,0,1-2.32-.47,3.88,3.88,0,0,1-1.72-1.43,4.23,4.23,0,0,1-.64-2.37V440h-3.06v-2.29h3.06v-7.49H250v7.49h5.1V440H250v15.13a2.27,2.27,0,0,0,.87,1.79,2.87,2.87,0,0,0,1.8.6,5.59,5.59,0,0,0,2.17-.4,5.73,5.73,0,0,0,1.19-.58Z"/><path class="cls-3" d="M271.27,433v-4.26h2.89V433Zm0,26.79V437.66h2.89v22.16Z"/><path class="cls-3" d="M287.81,460.24a14.16,14.16,0,0,1-5.06-.89,10.62,10.62,0,0,1-4-2.72l1.19-2.05a12.86,12.86,0,0,0,3.76,2.54,10.43,10.43,0,0,0,4,.78,7.7,7.7,0,0,0,4.21-1,3.32,3.32,0,0,0,1.62-3,2.55,2.55,0,0,0-.79-2,5.92,5.92,0,0,0-2.25-1.14c-1-.3-2.15-.62-3.51-.95a27.25,27.25,0,0,1-3.85-1.34,5.58,5.58,0,0,1-2.34-1.77,4.7,4.7,0,0,1-.79-2.81,5.76,5.76,0,0,1,1.09-3.58,6.7,6.7,0,0,1,3-2.15,11.47,11.47,0,0,1,4.24-.74,11.66,11.66,0,0,1,4.5.8,8.15,8.15,0,0,1,3.19,2.26l-1.4,1.95a7.52,7.52,0,0,0-2.83-2,9.62,9.62,0,0,0-3.63-.66,9.23,9.23,0,0,0-2.6.36,4.5,4.5,0,0,0-2,1.19,3.16,3.16,0,0,0-.79,2.26,2.63,2.63,0,0,0,.6,1.84,4.49,4.49,0,0,0,1.79,1.09c.79.3,1.77.62,2.93,1,1.67.45,3.13.9,4.38,1.37a7.23,7.23,0,0,1,2.89,1.8,4.35,4.35,0,0,1,1,3.08,5.66,5.66,0,0,1-2.34,4.82A10.13,10.13,0,0,1,287.81,460.24Z"/><path class="cls-3" d="M321.49,460.24a10.71,10.71,0,0,1-4.43-.91,11,11,0,0,1-3.53-2.5,11.6,11.6,0,0,1-2.31-3.66,11.78,11.78,0,0,1-.83-4.45,11.49,11.49,0,0,1,1.42-5.66,10.87,10.87,0,0,1,3.94-4.11,10.62,10.62,0,0,1,5.69-1.54,10.39,10.39,0,0,1,5.72,1.56,11.12,11.12,0,0,1,3.85,4.12,11.38,11.38,0,0,1,1.41,5.59v.66a1.9,1.9,0,0,1-.05.48h-19a9.42,9.42,0,0,0,1.34,4.21,8.44,8.44,0,0,0,2.93,2.92,7.52,7.52,0,0,0,3.93,1.08,8.13,8.13,0,0,0,4.11-1.11,6.06,6.06,0,0,0,2.7-2.89l2.51.68a8.33,8.33,0,0,1-2.09,2.85,10,10,0,0,1-3.29,2A11.55,11.55,0,0,1,321.49,460.24Zm-8.17-12.5h16.37a9,9,0,0,0-1.29-4.21,8.24,8.24,0,0,0-2.94-2.84,7.84,7.84,0,0,0-4-1,7.75,7.75,0,0,0-4,1,8.21,8.21,0,0,0-2.91,2.86A9.1,9.1,0,0,0,313.32,447.74Z"/><path class="cls-3" d="M369.84,459.82h-2.9v-12.3q0-3.84-1.23-5.66a4.13,4.13,0,0,0-3.66-1.82,6.5,6.5,0,0,0-4.48,1.78,9.52,9.52,0,0,0-2.79,4.56v13.44h-2.89v-12.3q0-3.88-1.19-5.68A4.07,4.07,0,0,0,347,440a6.66,6.66,0,0,0-4.46,1.73,9.21,9.21,0,0,0-2.81,4.56v13.49h-2.89V437.75h2.64v5a10.54,10.54,0,0,1,3.59-4,8.87,8.87,0,0,1,4.87-1.39,6.33,6.33,0,0,1,4.46,1.56,6.74,6.74,0,0,1,2.09,4.1,11.68,11.68,0,0,1,3.68-4.23,8.51,8.51,0,0,1,4.86-1.43,6.79,6.79,0,0,1,3.17.67,5.31,5.31,0,0,1,2.09,1.93,9,9,0,0,1,1.14,3,19.46,19.46,0,0,1,.37,3.91Z"/><path class="cls-3" d="M387.27,460.24a8.81,8.81,0,0,1-4.95-1.44,11.08,11.08,0,0,1-3.47-3.55v13.62H376V437.75h2.59v4.31a10.16,10.16,0,0,1,3.53-3.36,9.14,9.14,0,0,1,4.72-1.29,9.23,9.23,0,0,1,4.21.95,10.49,10.49,0,0,1,3.32,2.56,12.36,12.36,0,0,1,2.19,3.65,11.9,11.9,0,0,1,.79,4.25,12.86,12.86,0,0,1-1.26,5.69,10.53,10.53,0,0,1-3.51,4.17A9,9,0,0,1,387.27,460.24Zm-.81-2.55a7.16,7.16,0,0,0,3.28-.74,7.74,7.74,0,0,0,2.48-2,9.31,9.31,0,0,0,1.6-2.85,9.86,9.86,0,0,0,.55-3.28,9.32,9.32,0,0,0-.61-3.37,8.63,8.63,0,0,0-1.77-2.83,8.83,8.83,0,0,0-2.64-1.95,7.45,7.45,0,0,0-3.23-.71,6.83,6.83,0,0,0-2.29.42,8.91,8.91,0,0,0-2.28,1.2,8.16,8.16,0,0,0-1.81,1.75,4.62,4.62,0,0,0-.89,2.07v6.76a9.86,9.86,0,0,0,1.83,2.81,8.76,8.76,0,0,0,2.66,2A7,7,0,0,0,386.46,457.69Z"/><path class="cls-3" d="M412.57,458.92c-.22.09-.58.24-1.06.47a9.11,9.11,0,0,1-1.75.6,9,9,0,0,1-2.21.25,5.78,5.78,0,0,1-2.31-.47,3.85,3.85,0,0,1-1.73-1.43,4.23,4.23,0,0,1-.63-2.37V440h-3.07v-2.29h3.07v-7.49h2.89v7.49h5.1V440h-5.1v15.13a2.27,2.27,0,0,0,.87,1.79,2.9,2.9,0,0,0,1.81.6,5.66,5.66,0,0,0,2.17-.4,6.36,6.36,0,0,0,1.19-.58Z"/><path class="cls-3" d="M417.25,466.62l1.15.06a2.27,2.27,0,0,0,.81-.06,1.72,1.72,0,0,0,1-.59,7.68,7.68,0,0,0,1.11-1.95c.42-1,1-2.38,1.79-4.24l-9.66-22.09h3.06l8.13,19.12,7.48-19.12H435L423.5,466.24a5.18,5.18,0,0,1-.89,1.51,4.24,4.24,0,0,1-1.47,1.1,5.57,5.57,0,0,1-2.15.45,5,5,0,0,1-.78,0c-.27,0-.59-.05-1-.11Z"/></g></svg>