<svg id="Layer_1" data-name="Layer 1" xmlns="http://www.w3.org/2000/svg" viewBox="0 0 512 512"><defs><style>.cls-1{fill:#666;}</style></defs><path class="cls-1" d="M361,435.88A44.74,44.74,0,0,1,319,376l3.68-10.13H206.82L210.5,376a44.62,44.62,0,0,1-82.08,34.74,43.73,43.73,0,0,1,4.88-47l4.64-5.92-5.89-4.66c-12.44-9.85-20.66-24.68-22-39.65L89.63,85.83H80.05a9.67,9.67,0,0,1,0-19.34H98.48a9.62,9.62,0,0,1,9.63,8.81l5.5,61.19H448.52a9.69,9.69,0,0,1,9.41,11.95L403,309.7l0,.08a9.63,9.63,0,0,1-8.74,7.31l-266.31-4.66,4.32,10.11a39.5,39.5,0,0,0,36.36,24H361a44.68,44.68,0,1,1,0,89.36Zm0-70a25.33,25.33,0,1,0,25.33,25.33A25.35,25.35,0,0,0,361,365.87Zm-192.52,0a25.33,25.33,0,1,0,25.33,25.33A25.35,25.35,0,0,0,168.49,365.87Zm-40.82-72.72,258.07,5.17L436.4,155.84H115.34Z"/></svg>