<svg id="Layer_1" data-name="Layer 1" xmlns="http://www.w3.org/2000/svg" viewBox="0 0 512 512"><defs><style>.cls-1{fill:#666;}</style></defs><path class="cls-1" d="M303.62,433.74c-1,0-1.86,0-2.62,0l-1.62,0-1.67,0c-.75,0-1.6,0-2.57,0a175.27,175.27,0,0,1-38.69-4.65L256,429l-.45.1a175.27,175.27,0,0,1-38.69,4.65c-.93,0-1.78,0-2.54,0l-1.7,0-1.62,0c-.77,0-1.64,0-2.62,0-19.34,0-86.9-4.83-144.16-66.87l-2.06-2.23-.25-3c-.24-3-5.35-74.82,50.47-97.52l.11,0,32.24-15.3-2.3-2A106.46,106.46,0,0,1,212.27,60a105.49,105.49,0,0,1,42.57,8.87l.81.35.8-.35A105.53,105.53,0,0,1,299,60a106.4,106.4,0,0,1,70.09,186.56l-2.29,2,32.79,15.57.06,0c55.77,22.7,50.66,94.48,50.42,97.52l-.21,3-2,2.21C390.51,428.91,323,433.74,303.62,433.74Zm57.46-66.87a212.86,212.86,0,0,1-59.78,45.62l.89,3.79h.66c17.23,0,77.49-4.21,129.46-58.34l.56-.57v-.8c.11-14.11-2.46-61.32-40-76.4l-.58-.25-37.67-17.87-2-3.54-1.73,1a103.56,103.56,0,0,1-22.29,9.32l-4,1.14,3.4,2.41c38.72,27.42,35.92,83.07,35.47,89.33l-.24,3Zm-242-86.68C81.42,295.36,79,342.49,79.18,356.58v.79l.55.57c51.92,54.13,112.18,58.34,129.41,58.34h.74c1,0,1.73,0,2.36-.06h.05l.37,0,.33,0h.16c.68,0,1.66,0,2.9,0a164.44,164.44,0,0,0,40.44-5.56,189.84,189.84,0,0,0,89.06-52.77l.55-.57v-.79c.16-14.09-2.25-61.26-40-76.41l-.58-.25-15.49-7.33-.35,0A105,105,0,0,1,256.56,264l-.81-.36-.8.35a106.64,106.64,0,0,1-32.57,8.43,97.43,97.43,0,0,1-10.11.49,102.82,102.82,0,0,1-28.88-4.06A104.22,104.22,0,0,1,161,259.77l-1.71-.94-1.88,3.22ZM299,77.38a89.21,89.21,0,0,0-19.73,2.22l-4.06.92,3.26,2.6a106.26,106.26,0,0,1,3.86,163.41l-2.29,2,14.54,6.89H295c1.31.05,2.66.1,4,.1a89.08,89.08,0,0,0,0-178.16Zm-86.75,0a89.08,89.08,0,0,0,0,178.16c1.6,0,3.11,0,4.72-.09h.14A89.06,89.06,0,0,0,256.64,89.26,87.35,87.35,0,0,0,232,79.6,89.21,89.21,0,0,0,212.27,77.38Z"/></svg>