<svg id="Layer_1" data-name="Layer 1" xmlns="http://www.w3.org/2000/svg" viewBox="0 0 512 512"><defs><style>.cls-1{fill:#666;}</style></defs><path class="cls-1" d="M256,438.13a183.76,183.76,0,0,1-130.25-53.45,180.92,180.92,0,0,1-.42-257.51,184,184,0,0,1,259,0l2.87,2.83,53.06-54.61V210.5H311.9l53.49-55.06-2.82-2.79a153,153,0,0,0-108.24-44.58,147.78,147.78,0,0,0-104.1,253,150.86,150.86,0,0,0,212.35,0c28.56-28.14,42.92-61.27,43.82-101.15h33.83c-.57,19.73-5.3,41.65-13.47,62.21-9.63,24.23-23.64,45.86-40.52,62.55A183.77,183.77,0,0,1,256,438.13Z"/></svg>